<svg xmlns="http://www.w3.org/2000/svg" width="702" height="308" viewBox="0 0 702 308">
    <g fill="none" fill-rule="evenodd">
        <g fill="#FFF" fill-rule="nonzero">
            <g>
                <path d="M72.96 118l9.1-24.08h46.48l9.1 24.08H148l-37.66-98h-10.08L62.6 118h10.36zm52.08-33.32H85.56l19.74-52.5 19.74 52.5zm66.08 35c12.46 0 22.4-6.02 28.28-15.4V118h9.24V20h-9.24v41.72c-5.88-9.38-15.82-15.4-28.28-15.4C171.38 46.32 155 62.28 155 83s16.38 36.68 36.12 36.68zm.7-8.96c-15.54 0-27.58-12.18-27.58-27.72s12.04-27.72 27.58-27.72S219.4 67.46 219.4 83s-12.04 27.72-27.58 27.72zm88.34 8.96c12.46 0 22.4-6.02 28.28-15.4V118h9.24V20h-9.24v41.72c-5.88-9.38-15.82-15.4-28.28-15.4-19.74 0-36.12 15.96-36.12 36.68s16.38 36.68 36.12 36.68zm.7-8.96c-15.54 0-27.58-12.18-27.58-27.72s12.04-27.72 27.58-27.72S308.44 67.46 308.44 83s-12.04 27.72-27.58 27.72zm121.66 13.72L432.48 48h-9.8L400 106.66 373.68 48h-9.8l31.36 70.42-1.82 4.34c-3.78 9.1-10.08 15.54-19.18 14.56V146c12.6.98 22.96-8.12 28.28-21.56zm73.78-4.76c20.44 0 36.82-15.96 36.82-36.68s-16.38-36.68-36.82-36.68S439.48 62.28 439.48 83s16.38 36.68 36.82 36.68zm0-8.96c-15.54 0-27.58-12.18-27.58-27.72s12.04-27.72 27.58-27.72S503.88 67.46 503.88 83s-12.04 27.72-27.58 27.72zm77.98 8.96c9.94 0 18.06-3.78 23.52-12.6V118h9.24V48h-9.24v36.68c0 18.76-10.36 26.04-22.68 26.04-12.18 0-19.04-7.28-19.04-19.74V48h-9.24v42.98c0 17.5 10.36 28.7 27.44 28.7zm61.6-1.68V79.08c0-17.36 10.92-23.24 22.12-23.24v-8.96c-8.96 0-17.22 2.94-22.12 12.74V48h-9.24v70h9.24zM106.115 307.85c30.02 0 50.54-15.2 50.54-41.61 0-26.534-19.72-34.72-39.285-40.684l-1.235-.374c-.618-.186-1.234-.37-1.85-.552-18.05-5.32-22.8-8.55-22.8-14.44 0-4.75 3.99-8.74 12.35-8.74 9.69 0 16.53 4.94 20.71 14.82l28.5-16.72c-9.31-19.95-27.36-30.4-49.4-30.4-25.84 0-46.17 16.34-46.17 41.23 0 24.89 18.62 35.53 39.52 41.61 16.91 4.75 25.65 7.03 25.65 14.63 0 4.56-3.61 8.93-15.58 8.93-13.3 0-21.47-6.27-26.22-17.67l-29.07 16.91c7.03 19.57 25.46 33.06 54.34 33.06zm122.17-2.85V204.87h32.87V172h-99.75v32.87h32.87V305h34.01zm109.82 2.85c38.76 0 69.73-30.21 69.73-69.35 0-39.14-30.97-69.35-69.73-69.35-38.76 0-69.73 30.21-69.73 69.35 0 39.14 30.97 69.35 69.73 69.35zm0-33.25c-20.33 0-35.91-14.82-35.91-36.1s15.58-36.1 35.91-36.1 35.91 14.82 35.91 36.1-15.58 36.1-35.91 36.1zm119.51 30.4v-42.94h12.16l23.18 42.94h36.48l-27.36-49.21c13.68-7.6 22.61-21.47 22.61-37.81 0-26.79-20.9-45.98-47.88-45.98h-53.2v133h34.01zm18.81-71.82h-18.81v-29.83h18.81c8.36 0 14.25 6.27 14.25 15.01 0 8.93-5.89 15.01-14.25 14.82zM609.805 305v-51.11l44.84-81.89h-38.19l-23.75 49.21-23.56-49.21h-38.19l44.84 82.27V305h34.01z" transform="translate(-189 -877) translate(189 877)"/>
            </g>
        </g>
    </g>
</svg>
