<svg xmlns="http://www.w3.org/2000/svg" width="48" height="62" viewBox="0 0 48 62">
    <g fill="none" fill-rule="evenodd">
        <g fill="#FFF" fill-rule="nonzero">
            <g>
                <path d="M15 56.5c1.443 2.941 4.71 5 8.5 5s7.057-2.059 8.5-5H15zM24.5 6.272c2.63 0 5.156.434 7.5 1.228v-.27C32 3.52 28.77.5 24.798.5h-.596C20.23.5 17 3.52 17 7.23v.267c2.343-.792 4.868-1.225 7.5-1.225zM46.176 51.5H1.824c-.839 0-1.608-.563-1.782-1.38-.173-.809.198-1.607.949-1.952.178-.116 1.52-1.05 2.864-3.875 2.468-5.19 2.986-12.5 2.986-17.717C6.84 17.16 14.538 9.5 23.999 9.5c9.44 0 17.122 7.623 17.159 17.008l.001.068c0 5.218.518 12.528 2.986 17.717 1.344 2.826 2.686 3.76 2.864 3.875.751.345 1.122 1.143.95 1.952-.175.817-.944 1.38-1.783 1.38z" transform="translate(-842 -66) translate(842 66)"/>
            </g>
        </g>
    </g>
</svg>
