<svg xmlns="http://www.w3.org/2000/svg" xmlns:xlink="http://www.w3.org/1999/xlink" width="98" height="98" viewBox="0 0 98 98">
    <defs>
        <linearGradient id="xedafpj9nb" x1="114.154%" x2="-87.597%" y1="100.406%" y2="-54.704%">
            <stop offset="0%" stop-color="#52296E"/>
            <stop offset="100%" stop-color="#0A0D37"/>
        </linearGradient>
        <path id="yx7q5nx9aa" d="M40.884 53.165c-7.96.016-14.427-6.438-14.441-14.411-.016-7.975 6.426-14.451 14.387-14.467 7.96-.015 14.426 6.437 14.44 14.412.015 7.974-6.425 14.45-14.386 14.466m-.042-35.283c-11.512.024-20.827 9.373-20.805 20.885.021 11.51 9.372 20.825 20.884 20.803 11.512-.023 20.827-9.372 20.806-20.882-.022-11.514-9.373-20.827-20.885-20.806m27.263 52.911H13.592C6.51 70.793.765 65.05.765 57.967V22.693c0-7.083 5.744-12.826 12.827-12.826h1.603c3.079 0 6.034-1.224 8.211-3.401l2.817-2.819c2.178-2.176 5.132-3.4 8.212-3.4h12.827c3.079 0 6.033 1.224 8.21 3.4l2.818 2.819c2.177 2.177 5.132 3.4 8.212 3.4h1.603c7.084 0 12.827 5.744 12.827 12.827v35.274c0 7.083-5.743 12.826-12.827 12.826"/>
    </defs>
    <g fill="none" fill-rule="evenodd">
        <g transform="translate(7.992 13.32)">
            <use fill="url(#xedafpj9nb)" fill-rule="nonzero" xlink:href="#yx7q5nx9aa"/>
        </g>
    </g>
</svg>
