    <svg xmlns="http://www.w3.org/2000/svg" width="78" height="78" viewBox="0 0 78 78">
    <g fill="none" fill-rule="evenodd">
        <path fill="#725DFF" fill-rule="nonzero" d="M38.183 49.825c-5.263.01-9.538-4.256-9.547-9.527-.01-5.272 4.248-9.554 9.511-9.564 5.263-.01 9.538 4.256 9.548 9.528.01 5.271-4.249 9.553-9.512 9.563M38.156 26.5c-7.611.016-13.77 6.197-13.755 13.808.014 7.61 6.196 13.768 13.807 13.753 7.61-.015 13.77-6.196 13.755-13.805-.015-7.612-6.196-13.77-13.807-13.756M56.18 61.48H20.14c-4.683 0-8.48-3.797-8.48-8.48V29.68c0-4.683 3.797-8.48 8.48-8.48h1.06c2.035 0 3.989-.809 5.428-2.248l1.863-1.864c1.44-1.438 3.393-2.248 5.429-2.248h8.48c2.035 0 3.989.81 5.428 2.248l1.863 1.864c1.44 1.44 3.393 2.248 5.429 2.248h1.06c4.683 0 8.48 3.797 8.48 8.48V53c0 4.683-3.797 8.48-8.48 8.48" transform="translate(.98 .38)"/>
    </g>
</svg>
