<svg xmlns="http://www.w3.org/2000/svg" width="50" height="50" viewBox="0 0 50 50">
    <g fill="none" fill-rule="evenodd">
        <g>
            <g>
                <path fill="#725DFF" d="M25.215 7.992c1.315 0 2.381 1.066 2.381 2.38v12.462h12.462c1.315 0 2.38 1.066 2.38 2.381 0 1.315-1.065 2.381-2.38 2.381H27.596v12.462c0 1.315-1.066 2.38-2.38 2.38-1.316 0-2.381-1.065-2.381-2.38l-.001-12.462H10.373c-1.315 0-2.381-1.066-2.381-2.38 0-1.316 1.066-2.381 2.38-2.381l12.462-.001V10.373c0-1.315 1.066-2.381 2.381-2.381z" transform="translate(-65 -1616) rotate(-90 865.5 800.5) rotate(45 25.215 25.215)"/>
            </g>
        </g>
    </g>
</svg>
