<svg xmlns="http://www.w3.org/2000/svg" width="92" height="92" viewBox="0 0 92 92">
    <g fill="none" fill-rule="evenodd">
        <rect width="7.5" height="31.5" x="27.5" y="56.5" fill="#100A39" rx="3.75"/>
        <rect width="7.5" height="40.5" x="57.5" y="4" fill="#100A39" rx="3.75"/>
        <path fill="#100A39" d="M31.25 4C33.321 4 35 5.679 35 7.75v19.5c0 .533-.111 1.04-.312 1.5 2.84 1.302 4.812 4.17 4.812 7.5 0 4.556-3.694 8.25-8.25 8.25S23 40.806 23 36.25c0-3.33 1.972-6.198 4.812-7.502-.2-.457-.312-.965-.312-1.498V7.75C27.5 5.679 29.179 4 31.25 4zM61.25 88c-2.071 0-3.75-1.679-3.75-3.75v-10.5c0-.533.111-1.04.312-1.5-2.84-1.302-4.812-4.17-4.812-7.5 0-4.556 3.694-8.25 8.25-8.25s8.25 3.694 8.25 8.25c0 3.33-1.972 6.198-4.812 7.502.2.457.312.965.312 1.498v10.5c0 2.071-1.679 3.75-3.75 3.75z"/>
    </g>
</svg>
