<svg width="28" height="28" viewBox="0 0 28 28" fill="none" xmlns="http://www.w3.org/2000/svg">
<path fill-rule="evenodd" clip-rule="evenodd" d="M4 14C4 8.47715 8.47715 4 14 4C19.5228 4 24 8.47715 24 14C24 19.5228 19.5228 24 14 24C8.47715 24 4 19.5228 4 14Z" fill="#8B37FF"/>
<path d="M12.795 16.1327L18.1711 10.5038C18.4942 10.1654 19.0182 10.1654 19.3413 10.5038C19.6645 10.8421 19.6645 11.3907 19.3413 11.7291L12.795 18.5833L8.99273 14.6023C8.66958 14.2639 8.66958 13.7153 8.99273 13.377C9.31589 13.0386 9.83984 13.0386 10.163 13.377L12.795 16.1327Z" fill="white"/>
</svg>
