<svg xmlns="http://www.w3.org/2000/svg" width="41" height="41" viewBox="0 0 41 41">
    <g fill="none" fill-rule="evenodd">
        <path fill="#725DFF" d="M30.162 9.864c.775.775.775 2.03 0 2.806l-7.843 7.842 7.843 7.844c.775.775.775 2.031 0 2.806-.775.775-2.031.775-2.806 0l-7.843-7.845-6.843 6.845c-.775.775-2.031.775-2.806 0-.775-.775-.775-2.031 0-2.806l6.843-6.844-6.843-6.842c-.775-.775-.775-2.031 0-2.806.775-.775 2.03-.775 2.806 0l6.843 6.842 7.843-7.842c.775-.775 2.031-.775 2.806 0z" transform="rotate(-90 20.5 20.5)"/>
    </g>
</svg>
