<svg xmlns="http://www.w3.org/2000/svg" xmlns:xlink="http://www.w3.org/1999/xlink" width="851" height="184" viewBox="0 0 851 184">
    <defs>
        <path id="tjve60cxaa" d="M0 0.437L16.642 0.437 16.642 17.078 0 17.078z"/>
        <path id="pqneifjdnc" d="M0.091 0.334L24.746 0.334 24.746 24.988 0.091 24.988z"/>
    </defs>
    <g fill="none" fill-rule="evenodd">
        <g>
            <g>
                <g>
                    <path fill="#FFF" d="M85.707 77.789c11.425 9.096 44.409-34.02 21.843-47.259C65.206 5.687-13.97 157.73 40.904 159.11c36.997.93 63.98-64.116 63.98-64.116s-37.413 55.222-53.243 51.394c-15.83-3.83 24.845-125.01 52.92-111.914 11.724 5.469-25.979 37.64-18.854 43.315" transform="translate(-115 -378) translate(62 299) translate(53 79)"/>
                    <path fill="#C9961A" d="M89.448 42.606c-4.605 6.982-8.686 14.246-12.497 21.644-3.793 7.407-7.292 14.962-10.456 22.651-.842 1.901-1.558 3.853-2.335 5.782-.79 1.923-1.472 3.886-2.188 5.836l-1.076 2.925-.983 2.956-.986 2.957-.901 2.98-.898 2.986-.783 3.012-.79 3.016-.636 3.048c-.936 4.06-1.403 8.185-1.714 12.361-.19-4.172-.014-8.399.625-12.55l.459-3.119.62-3.087c.207-1.03.413-2.061.646-3.086l.779-3.051c2.09-8.139 4.9-16.068 8.084-23.828.837-1.922 1.624-3.868 2.503-5.773.885-1.9 1.737-3.817 2.65-5.704l2.832-5.617c.978-1.855 1.997-3.687 3.007-5.524 4.128-7.29 8.68-14.382 14.038-20.815M117.45 41.68c.733 2.266.763 4.734.54 7.11-.244 2.387-.741 4.745-1.433 7.04-.668 2.306-1.568 4.535-2.566 6.718-1.03 2.17-2.227 4.26-3.55 6.273-2.704 3.966-5.998 7.67-10.18 10.233-2.075 1.279-4.376 2.232-6.773 2.677-2.397.433-4.877.32-7.142-.383 2.36.21 4.702.004 6.883-.69 2.19-.664 4.211-1.758 6.065-3.07 1.84-1.335 3.542-2.873 5.063-4.584 1.541-1.69 2.948-3.515 4.216-5.436 2.583-3.81 4.676-7.972 6.327-12.296.807-2.17 1.516-4.383 2.005-6.65.51-2.265.785-4.585.546-6.943M32.135 161.704c2.78.952 5.696 1.226 8.568 1.178 1.437.05 2.87-.155 4.295-.277.712-.072 1.415-.241 2.122-.35.702-.143 1.417-.204 2.105-.412 5.57-1.338 10.858-3.69 15.671-6.785 4.875-3.023 9.19-6.902 13.148-11.1 4.057-4.14 7.428-8.888 10.923-13.603-2.69 5.192-5.711 10.311-9.612 14.772l-1.417 1.712c-.47.572-1.033 1.061-1.545 1.596-1.06 1.036-2.075 2.125-3.176 3.121l-3.445 2.837-.433.354-.46.316-.924.63-1.848 1.26-.932.619-.98.54-1.97 1.07c-1.286.76-2.69 1.294-4.062 1.884-2.763 1.132-5.655 1.958-8.592 2.491-.726.172-1.482.195-2.219.299-.743.07-1.479.203-2.226.21-1.495.005-2.98.098-4.467-.086-2.947-.257-5.93-.86-8.524-2.276" transform="translate(-115 -378) translate(62 299) translate(53 79)"/>
                    <path fill="#FFF" d="M109.383 94.203c-9.697-6.13-32.797 41.998-9.275 48.284 23.523 6.287 46.595-48.669 25.94-56.151-18.159-6.578-21.61 17.903-5.44 25.047 10.642 4.702 27.064-1.436 40.258-17.355-10.08 4.52-27.294 19.14-37.675 12.468-10.381-6.673-7.814-20.302 1.784-12.964 9.6 7.336-5.943 46.127-17.367 40.341-8.112-4.108.242-20.858 3.283-28.38-2.501-5.059-.593-10.711-1.508-11.29" transform="translate(-115 -378) translate(62 299) translate(53 79)"/>
                    <path fill="#C9961A" d="M112.29 109.623c-.601 1.856-1.271 3.653-1.91 5.452-.617 1.806-1.23 3.603-1.715 5.42-.503 1.81-.896 3.65-.992 5.484-.072.925.03 1.823.213 2.72.238.877.675 1.692 1.347 2.416-.87-.45-1.572-1.242-2.039-2.161-.384-.937-.663-1.95-.692-2.955-.142-2.022.217-4 .717-5.896.536-1.894 1.23-3.726 2.084-5.476.857-1.748 1.834-3.433 2.986-5.004M97.944 145.585c2.191.431 4.369.701 6.536.627.539-.017 1.076-.094 1.611-.136l.8-.076c.265-.042.526-.11.788-.163l1.567-.322 1.516-.5c4.037-1.357 7.52-3.993 10.432-7.12 2.976-3.097 5.352-6.78 7.485-10.587 1.115-1.885 2.048-3.873 3.034-5.848.537-.97.924-2.003 1.397-3.007.454-1.009.927-2.016 1.414-3.02-.261 1.079-.535 2.158-.829 3.235-.3 1.073-.566 2.162-.959 3.208l-1.146 3.152-.293.789-.352.764-.704 1.53c-.867 2.079-2.087 3.987-3.218 5.945l-1.978 2.772c-.686.905-1.476 1.738-2.214 2.608-.363.44-.796.82-1.222 1.206l-1.271 1.16c-.407.405-.89.726-1.353 1.069l-1.403 1.009c-.47.332-1.006.57-1.505.86-.513.265-1.002.575-1.535.802l-1.615.638c-.27.1-.537.21-.811.3l-.844.208-1.68.407-1.717.196c-.286.026-.57.066-.855.08l-.861-.011c-.572-.018-1.143.007-1.71-.05-2.27-.234-4.468-.822-6.505-1.725M133.096 88.178c1.137.768 2.16 1.69 3.014 2.798.855 1.102 1.519 2.408 1.858 3.795.351 1.384.39 2.808.256 4.175-.136 1.37-.436 2.707-.917 3.992-.137-1.368-.168-2.702-.253-4.01-.085-1.307-.24-2.58-.541-3.796-.303-1.216-.766-2.379-1.379-3.517-.609-1.14-1.353-2.246-2.038-3.437" transform="translate(-115 -378) translate(62 299) translate(53 79)"/>
                    <path fill="#FFF" d="M154.94 83.533c1.532 4.31-12.233 25.233-12.92 48.147-.179 5.933 13.033 7.295 12.5 3.308-1.215-9.081 10.919-44.734 12.913-48.488 2.396-4.511-14.852-9.604-12.493-2.967" transform="translate(-115 -378) translate(62 299) translate(53 79)"/>
                    <path fill="#FFF" d="M152.553 132.432c4.435-23.048 20.11-44.5 30.192-51.201 3.254-2.163 12.326.112 9.85 5.876-4.105 9.559-27.279 70.137 14.822 15.86-.991.542 2.227-.838.454 2.235-4.306 7.468-18.205 28.867-29.327 30.06-18.656 1.998-2.867-31.028.337-41.946-7.602 6.588-18.926 24.06-26.328 39.116" transform="translate(-115 -378) translate(62 299) translate(53 79)"/>
                    <path fill="#C9961A" d="M144.895 138.707c1.94.464 3.861.943 5.792 1.212.962.143 1.924.242 2.863.24.93-.002 1.868-.086 2.58-.396.353-.154.606-.365.744-.593.14-.223.218-.488.202-.84-.012-.345-.104-.74-.252-1.136-.066-.208-.16-.377-.247-.62l-.291-.806c-.33-1.089-.421-2.231-.333-3.312l.065-.813.14-.787c.08-.532.216-1.039.359-1.542.6-2.007 1.447-3.868 2.378-5.665.982-1.765 1.991-3.5 3.129-5.146 2.225-3.321 4.675-6.461 7.336-9.432-1.895 3.51-3.928 6.91-5.839 10.348-1.874 3.44-3.794 6.906-4.842 10.511-.522 1.78-.794 3.63-.351 5.253l.178.603c.068.228.193.506.263.776.166.541.287 1.129.272 1.776-.005.636-.198 1.377-.654 1.949-.45.575-1.065.922-1.637 1.112-1.161.361-2.25.345-3.288.224-1.04-.127-2.037-.35-3.01-.63-1.94-.587-3.79-1.357-5.557-2.286M193.705 90.196c-.62 2.681-1.366 5.289-2.144 7.883-.775 2.596-1.575 5.175-2.403 7.742l-2.493 7.687c-.399 1.283-.811 2.563-1.154 3.856-.193.645-.335 1.293-.466 1.947-.064.328-.109.655-.127.984-.014.328-.016.662.135.977-.49-.525-.562-1.31-.63-1.99-.054-.7-.039-1.402-.003-2.095.095-1.385.282-2.756.542-4.106.513-2.7 1.214-5.35 2.054-7.95.836-2.599 1.81-5.15 2.902-7.653 1.095-2.501 2.307-4.959 3.787-7.282M169.8 135.572c1.063.661 2.106 1.254 3.212 1.661.272.11.559.181.832.273.275.091.549.179.837.217.285.05.563.112.84.172.282.039.567.052.848.08 2.257.207 4.49-.334 6.584-1.24 2.107-.897 4.085-2.196 5.975-3.647 1.927-1.419 3.692-3.078 5.635-4.649-1.218 2.162-2.67 4.217-4.48 5.971-.848.939-1.885 1.683-2.877 2.484l-1.622 1.04c-.56.32-1.16.579-1.741.867-.588.274-1.231.444-1.846.663-.628.189-1.292.284-1.936.408-.661.05-1.326.101-1.986.089-.663-.058-1.327-.067-1.969-.257-1.306-.227-2.507-.832-3.598-1.494-1.065-.732-1.99-1.62-2.708-2.638" transform="translate(-115 -378) translate(62 299) translate(53 79)"/>
                    <path fill="#FFF" d="M243.724 99.03c-1.092-3.415-3.452-1.93-6.016-.912-7.611 3.02-19.819 56.99-41 64.159-1.61.545-1.89 2.698-.436 3.585 30.083 18.375 49.981-58.93 47.452-66.832" transform="translate(-115 -378) translate(62 299) translate(53 79)"/>
                    <path fill="#FFF" d="M240.65 91.785c3.523-7.66 4.795-16.44-8.348-18.094-17.2-2.163-48.322 58.042-20.743 55.837 12.494-.968 21.515-22.33 24.095-29.75-2.722 6.316-14.11 21.35-19.265 21.079-6.373-.338 8.979-42.809 16.365-42.578 4.454.14 4.703 7.905 2.812 12.849-1.895 4.955 4.016 4.222 5.084.657" transform="translate(-115 -378) translate(62 299) translate(53 79)"/>
                    <path fill="#C9961A" d="M230.987 83.415c-1.621 2.62-2.865 5.368-4.1 8.13-.59 1.393-1.211 2.77-1.765 4.179-.576 1.397-1.15 2.796-1.68 4.213-.567 1.402-1.095 2.82-1.616 4.24-.548 1.41-1.026 2.845-1.54 4.268-.486 1.43-.978 2.863-1.386 4.314-.215.723-.402 1.453-.547 2.188-.073.368-.13.738-.149 1.108-.015.366-.028.755.194 1.076-.329-.236-.438-.67-.533-1.046-.081-.393-.114-.787-.134-1.182-.037-.79.023-1.57.084-2.349.163-1.551.432-3.084.781-4.59.326-1.516.774-2.996 1.214-4.476.47-1.471.993-2.924 1.537-4.368 1.144-2.867 2.424-5.686 3.98-8.365 1.55-2.663 3.307-5.303 5.66-7.34M203.008 170.34c3.869.578 7.758-.358 11.145-2.079 1.698-.87 3.292-1.921 4.798-3.086 1.485-1.195 2.872-2.504 4.172-3.9 2.618-2.777 4.795-5.95 6.777-9.222 1.974-3.285 3.644-6.752 5.168-10.28.39-.879.765-1.764 1.105-2.666.346-.897.71-1.787 1.044-2.69.629-1.822 1.32-3.62 1.893-5.464 1.24-3.652 2.222-7.39 3.234-11.12 1.949-7.484 3.449-15.092 4.805-22.732l-.007.088c.084-1.138-.653-2.158-1.368-3.34-.72-1.172-1.234-2.53-1.409-3.895-.342-2.75.188-5.431.876-8.002-.22 1.318-.381 2.644-.435 3.967-.059 1.321-.006 2.646.267 3.91.257 1.273.79 2.43 1.536 3.486.365.538.787 1.06 1.15 1.697.365.628.605 1.41.617 2.18l-.003.054-.003.033c-.903 7.74-2.19 15.45-3.996 23.056-.48 1.895-.904 3.805-1.466 5.68l-.805 2.822c-.274.94-.587 1.868-.879 2.804-1.164 3.74-2.573 7.408-4.15 11.005-1.562 3.603-3.372 7.112-5.481 10.445-2.098 3.337-4.502 6.51-7.325 9.295-.71.691-1.416 1.384-2.191 2.006-.74.66-1.552 1.235-2.343 1.832-1.63 1.13-3.35 2.14-5.177 2.912-3.623 1.563-7.757 2.192-11.549 1.205M200.085 129.197c1.504 1.338 3.104 2.393 4.846 2.972 1.74.586 3.58.695 5.396.466 1.817-.236 3.616-.788 5.33-1.583 1.718-.802 3.349-1.821 4.92-3.07-.979 1.762-2.484 3.234-4.208 4.349-1.728 1.114-3.711 1.902-5.807 2.164-2.085.272-4.3-.026-6.194-.982-1.903-.938-3.407-2.516-4.283-4.316" transform="translate(-115 -378) translate(62 299) translate(53 79)"/>
                    <path fill="#FFF" d="M332.768 89.614c3.532-7.676 4.853-16.902-8.367-18.135-18.102-1.687-48.903 58.439-20.792 55.965 12.524-.97 21.496-25.226 22.233-32.135-2.729 6.332-12.223 23.717-17.39 23.444-6.387-.337 9-42.908 16.402-42.675 4.465.14 4.714 7.923 2.818 12.878-1.899 4.967 4.025 4.23 5.096.658" transform="translate(-115 -378) translate(62 299) translate(53 79)"/>
                    <path fill="#FFF" d="M325.84 95.654c-3.44 3.41-10.869 29.11-.667 30.39 14.764 1.85 28.984-26.271 29.827-31.719-3.764 8.316-19.76 23.57-24.865 24.105-4.74.496 4.09-17.186 5.296-21.906.663-2.593-5.648-4.78-9.592-.87" transform="translate(-115 -378) translate(62 299) translate(53 79)"/>
                    <path fill="#C9961A" d="M322.627 81.146c-1.464 2.803-2.686 5.66-3.924 8.52-.592 1.442-1.222 2.863-1.791 4.312-.59 1.439-1.183 2.876-1.728 4.33-.583 1.44-1.127 2.894-1.653 4.353-.556 1.449-1.035 2.92-1.53 4.385-.466 1.472-.923 2.95-1.237 4.449-.165.747-.286 1.503-.318 2.258-.017.738.008 1.55.59 2.112-.37-.16-.648-.51-.838-.879-.184-.376-.293-.78-.374-1.183-.16-.81-.166-1.628-.157-2.439.067-1.615.303-3.208.636-4.768.65-3.13 1.656-6.147 2.786-9.106 1.177-2.942 2.49-5.83 4.044-8.593 1.551-2.753 3.262-5.477 5.494-7.751M338.639 76.938c.182 1.656.064 3.351-.219 5.014-.295 1.66-.8 3.287-1.28 4.834-.22.761-.435 1.552-.44 2.127-.03.315.088.436.138.561.03.027.072.048.1.077.038.032.023.04.148.138.188.159.38.308.56.48.724.683 1.248 1.617 1.515 2.57.271.96.312 1.925.247 2.837-.43 3.63-1.96 6.63-3.365 9.608-1.422 2.975-2.95 5.835-4.003 8.987.133-3.353 1.27-6.586 2.387-9.673.543-1.557 1.172-3.07 1.659-4.6.518-1.514.961-3.042 1.081-4.51.147-1.466-.133-2.79-1.038-3.732-.11-.121-.239-.23-.357-.348l-.291-.294c-.112-.121-.226-.239-.322-.372-.148-.297-.347-.617-.37-.922-.028-.154-.052-.31-.07-.463-.002-.14.01-.275.016-.412.086-1.073.445-1.855.756-2.645.64-1.55 1.338-2.998 1.868-4.53.56-1.52.966-3.096 1.28-4.732M299.748 130.335c1.737-.251 3.391-.419 4.975-.754 1.584-.32 3.086-.776 4.49-1.432 1.406-.653 2.704-1.521 3.934-2.552 1.241-1.024 2.381-2.226 3.622-3.467-.42 1.703-1.238 3.295-2.353 4.7-1.121 1.396-2.58 2.587-4.248 3.356-1.665.777-3.492 1.144-5.272 1.15-1.784-.006-3.53-.323-5.148-1M323.254 127.897c1.85.67 3.65.883 5.423.675 1.764-.18 3.46-.696 5.06-1.45 1.602-.756 3.107-1.748 4.554-2.88 1.455-1.139 2.767-2.47 4.233-3.794-.677 1.839-1.688 3.57-3.01 5.073-1.337 1.484-2.962 2.766-4.822 3.638-1.852.873-3.945 1.327-6.008 1.178-2.047-.129-4.105-.97-5.43-2.44" transform="translate(-115 -378) translate(62 299) translate(53 79)"/>
                    <path fill="#FFF" d="M523.33 89.48c3.665-7.614 5.148-16.815-8.048-18.279-18.07-2.005-49.919 57.573-21.768 55.592 12.537-.749 21.932-24.846 22.79-31.74-2.839 6.283-12.636 23.499-17.798 23.136-6.38-.45 9.75-42.744 17.148-42.382 4.46.217 4.574 8.004 2.593 12.925-1.987 4.932 3.949 4.301 5.082.748" transform="translate(-115 -378) translate(62 299) translate(53 79)"/>
                    <path fill="#FFF" d="M516.296 95.397c-3.499 3.35-11.377 28.917-1.198 30.373 14.729 2.11 26.258-22.721 27.197-28.155-3.91 8.25-16.989 20.184-22.103 20.63-4.748.413 4.39-17.112 5.679-21.809.708-2.582-5.564-4.879-9.575-1.04" transform="translate(-115 -378) translate(62 299) translate(53 79)"/>
                    <path fill="#C9961A" d="M513.339 80.835c-1.514 2.778-2.785 5.613-4.074 8.45-.616 1.432-1.272 2.842-1.866 4.28-.615 1.429-1.234 2.854-1.804 4.3-.607 1.43-1.177 2.874-1.729 4.322-.58 1.439-1.086 2.902-1.607 4.359-.49 1.463-.973 2.932-1.313 4.425-.18.744-.314 1.498-.358 2.252-.029.738-.02 1.55.553 2.123-.366-.167-.64-.521-.822-.893-.178-.38-.28-.785-.354-1.19-.144-.813-.138-1.63-.114-2.44.095-1.616.36-3.203.719-4.757.705-3.118 1.763-6.118 2.946-9.057 1.228-2.92 2.59-5.784 4.193-8.52 1.6-2.725 3.358-5.42 5.63-7.654M529.421 76.908c.154 1.659.006 3.352-.306 5.01-.324 1.655-.859 3.272-1.366 4.81-.23.758-.46 1.544-.477 2.12-.035.314.082.437.129.563.03.027.07.05.098.078.038.034.024.042.147.142.184.16.375.314.551.488.712.696 1.22 1.64 1.47 2.598.254.963.277 1.93.197 2.84-.493 3.622-2.076 6.595-3.532 9.548-1.475 2.95-3.051 5.782-4.16 8.914.191-3.348 1.385-6.562 2.556-9.628.57-1.547 1.225-3.05 1.74-4.57.543-1.506 1.013-3.026 1.159-4.49.173-1.464-.085-2.794-.973-3.751-.108-.122-.235-.233-.351-.355l-.286-.298c-.11-.123-.221-.244-.315-.378-.143-.3-.336-.623-.354-.928-.025-.155-.045-.31-.062-.464.002-.141.014-.275.023-.412.105-1.072.479-1.847.803-2.632.667-1.538 1.39-2.974 1.946-4.495.588-1.51 1.021-3.08 1.363-4.71M489.6 129.616c1.742-.22 3.399-.36 4.99-.666 1.588-.293 3.098-.723 4.514-1.353 1.417-.63 2.73-1.475 3.977-2.484 1.26-1.002 2.42-2.184 3.683-3.402-.45 1.695-1.296 3.271-2.436 4.657-1.145 1.376-2.624 2.542-4.305 3.282-1.679.747-3.511 1.083-5.292 1.056-1.784-.036-3.525-.384-5.13-1.09M513.146 127.59c1.838.703 3.634.946 5.41.77 1.767-.15 3.472-.635 5.086-1.362 1.615-.727 3.137-1.693 4.604-2.8 1.473-1.111 2.808-2.42 4.298-3.719-.71 1.828-1.75 3.539-3.1 5.02-1.362 1.46-3.008 2.714-4.883 3.553-1.869.841-3.968 1.258-6.028 1.072-2.044-.164-4.088-1.041-5.387-2.534" transform="translate(-115 -378) translate(62 299) translate(53 79)"/>
                    <path fill="#FFF" d="M323.25 54.572c-.854-.215-.635-1.544.238-1.414 50.902 7.529 101.346-7.25 107.627-7.546 6.743-.32 5.278 8.384-2.178 9.488-12.017 3.352-70.702 8.27-105.686-.528" transform="translate(-115 -378) translate(62 299) translate(53 79)"/>
                    <path fill="#FFF" d="M377.998 35.555c-5.891 15.92-41.814 88.433-23.383 90.886 18.072 2.406 30.253-18.937 33.279-28.429-9.778 10.474-14.93 19.415-22.675 18.815-9.654-.747 17.136-64.251 21.888-77.092 2.05-5.54-5.693-13.41-9.11-4.18" transform="translate(-115 -378) translate(62 299) translate(53 79)"/>
                    <path fill="#C9961A" d="M353.564 127.922c1.49.516 3.002.796 4.518.813 1.507.033 3.005-.082 4.453-.428 2.9-.644 5.636-1.904 8.114-3.58.313-.208.647-.378.943-.611l.898-.685c.6-.457 1.21-.898 1.762-1.421l1.721-1.494c.53-.546 1.071-1.085 1.623-1.618l.824-.804.77-.859 1.572-1.707c1.037-1.154 1.997-2.378 3.095-3.526-.675 1.418-1.402 2.823-2.207 4.184l-1.313 1.977c-.22.332-.446.657-.678.98l-.752.924c-1.925 2.54-4.358 4.703-7.022 6.54-1.354.888-2.803 1.653-4.32 2.256-.781.252-1.528.587-2.34.74l-1.196.278c-.398.088-.814.1-1.219.153-1.62.223-3.28.096-4.865-.21-1.582-.33-3.12-.943-4.38-1.902M433.58 55.992c-4.18 1.492-8.51 2.55-12.862 3.432-4.357.864-8.75 1.558-13.156 2.116-4.405.571-8.825 1.028-13.246 1.406l-6.633.545-3.308.26c-1.085.091-2.231.171-3.214.323l-.15.03c-.026 0-.096.039.043-.025.004-.003.05-.026.108-.068.041-.037.086-.05.225-.243.127-.231.096-.225.094-.194l-.008.026-.035.104-.068.204-.271.796-.55 1.573-1.105 3.133-2.226 6.252-2.209 6.253-2.158 6.268c-1.41 4.186-2.8 8.377-4.024 12.612-.605 2.118-1.173 4.248-1.616 6.4-.21 1.077-.408 2.158-.49 3.249-.043.545-.061 1.092-.022 1.636.044.542.138 1.093.434 1.568-.361-.428-.544-.986-.666-1.533-.124-.551-.177-1.117-.195-1.678-.043-1.126.016-2.25.132-3.363.222-2.23.617-4.432 1.078-6.614.924-4.363 2.113-8.656 3.414-12.908.64-2.129 1.326-4.242 2.038-6.346.715-2.103 1.415-4.21 2.18-6.294l2.3-6.247c.384-1.042.797-2.071 1.194-3.104l.597-1.547.292-.768.07-.188.033-.092.008-.023c.002.015-.022.004.115-.241.148-.21.208-.231.263-.278.072-.053.132-.086.153-.095.263-.123.33-.118.439-.149l.258-.048c1.21-.167 2.278-.216 3.4-.296l3.324-.193 6.63-.38c4.415-.282 8.827-.595 13.23-1.004 4.4-.423 8.797-.906 13.167-1.578 4.37-.67 8.725-1.48 12.992-2.69M322.961 56.075c3.35.884 6.694 1.58 10.064 2.17 3.37.573 6.754 1.07 10.154 1.481 3.395.444 6.804.802 10.218 1.197 3.414.382 6.836.756 10.265 1.263-3.455.274-6.915.306-10.37.196-3.458-.098-6.91-.38-10.349-.797-3.434-.453-6.86-1.038-10.224-1.915-3.36-.868-6.684-1.985-9.758-3.595M389.814 38.911c-.08 1.218-.345 2.371-.652 3.507-.319 1.134-.706 2.241-1.153 3.325-.445 1.084-.951 2.143-1.525 3.173-.584 1.026-1.211 2.032-2.018 2.958.085-1.235.35-2.389.656-3.524.318-1.13.703-2.23 1.149-3.308.445-1.077.95-2.13 1.522-3.157.584-1.024 1.21-2.033 2.021-2.974" transform="translate(-115 -378) translate(62 299) translate(53 79)"/>
                    <path fill="#FFF" d="M742.236 102.994c-.421.386-.115 1.085.454 1.038 20.47-1.748 25.151-24.916 16.445-28.773-15.043-6.667-36.968 13.613-30.916 28.778 2.123 5.322 12.073 9.272 12.385 14.603.923 15.804-19.441 19.827-22.003 14.454-4.219-8.847 31.25-23.989 54.834.049.341.348.933.147.988-.338 3.583-32.293-70.935-14.65-59.681 3.796 8.767 14.37 37.996 2.44 31.785-15.885-3.571-10.534-10.06-13.035-11.01-17.179-2.365-10.326 14.688-26.85 19.363-26.13 5.142.793-3.824 17.504-12.644 25.587" transform="translate(-115 -378) translate(62 299) translate(53 79)"/>
                    <path fill="#C9961A" d="M719.32 143.838c.83.442 1.743.653 2.644.837.905.19 1.828.272 2.744.343 1.84.114 3.683.049 5.502-.15 3.63-.419 7.193-1.422 10.285-3.193 3.078-1.774 5.596-4.404 6.939-7.644 1.395-3.226 1.626-6.882 1.365-10.48l-.005-.066c-.038-.524.357-.98.881-1.02.078-.005.16 0 .232.012 1.91.33 3.795.778 5.603 1.443 1.805.662 3.56 1.44 5.226 2.374 1.666.933 3.255 1.99 4.744 3.168.753.576 1.456 1.22 2.143 1.871.66.674 1.345 1.364 1.775 2.206-.547-.765-1.329-1.306-2.05-1.885-.75-.553-1.524-1.072-2.312-1.563-1.577-.982-3.218-1.85-4.891-2.628-1.69-.747-3.41-1.4-5.163-1.928-1.759-.509-3.546-.87-5.342-1.116l1.108-1.073c.46 3.809.219 7.842-1.314 11.537-.798 1.824-1.91 3.518-3.278 4.961-1.36 1.454-2.99 2.623-4.716 3.54-1.73.92-3.568 1.589-5.445 2.03-1.875.448-3.784.701-5.693.752-1.908.064-3.816-.063-5.686-.39-.936-.164-1.861-.39-2.759-.695-.896-.3-1.781-.682-2.537-1.243M737.468 122.645c-1.662.427-3.146 1.079-4.662 1.703-1.498.652-2.98 1.323-4.435 2.03-1.453.711-2.884 1.452-4.24 2.283-.665.429-1.327.869-1.885 1.403-.571.524-1.068 1.124-1.178 1.996-.19-.394-.223-.873-.152-1.337.084-.459.263-.896.477-1.303.45-.805 1.043-1.495 1.692-2.097 1.293-1.217 2.786-2.14 4.334-2.902 1.558-.745 3.186-1.336 4.88-1.686 1.672-.345 3.475-.569 5.17-.09M752.976 79.794c-1.663 1.864-3.382 3.61-5.058 5.376-1.67 1.77-3.295 3.555-4.806 5.405-1.498 1.857-2.91 3.774-3.921 5.874-.495 1.051-.907 2.141-1.118 3.29-.217 1.147-.199 2.344.036 3.576-.688-1.05-1.034-2.342-1.102-3.645-.032-1.307.195-2.619.607-3.849.822-2.472 2.22-4.664 3.81-6.618 1.597-1.96 3.414-3.698 5.345-5.274 1.936-1.57 3.99-2.98 6.207-4.135M764.249 76.678c.526.61.92 1.342 1.22 2.111.266.775.475 1.584.58 2.4.219 1.637.19 3.301-.035 4.93-.43 3.268-1.557 6.414-3.157 9.297-1.64 2.853-3.78 5.483-6.5 7.405-2.686 1.933-5.95 3.11-9.171 3.086 3.092-.886 5.823-2.407 8.12-4.419 1.137-1.016 2.197-2.118 3.122-3.332.945-1.195 1.798-2.468 2.536-3.809.771-1.322 1.42-2.716 1.986-4.143.589-1.421 1.023-2.898 1.4-4.39.35-1.497.6-3.024.64-4.563.06-1.541-.092-3.097-.741-4.573" transform="translate(-115 -378) translate(62 299) translate(53 79)"/>
                    <path fill="#FFF" d="M803.143 63.212c-4.596 17.587-26.91 70.604-24.251 77.419 2.011 5.156 10.36 5.712 12.264 2.258 1.904-3.454 25.968-76.025 30.576-85.766 4.924-10.406-16.28-2.752-18.59 6.089M770.395 161.912c-.07-4.592 3.376-8.368 7.698-8.434 4.322-.067 8.364 3.105 8.434 7.697.07 4.592-3.857 8.865-8.18 8.93-4.32.067-7.881-3.602-7.952-8.193" transform="translate(-115 -378) translate(62 299) translate(53 79)"/>
                    <path fill="#C9961A" d="M783.687 147.54c1.953.704 4.114 1.051 6.011.413 1.883-.685 3.247-2.284 4.29-4.002 2.075-3.504 3.339-7.5 4.627-11.437 1.233-3.968 2.411-7.97 3.552-11.985l3.52-12.03c1.224-3.998 2.443-8 3.73-11.98 1.303-3.975 2.61-7.95 4.012-11.891 2.773-7.894 5.762-15.714 9.079-23.397l-7.411 23.946-3.648 11.978-3.608 11.99c-2.442 7.985-4.738 16.019-7.57 23.93-1.45 3.936-2.95 7.916-5.367 11.482-.634.868-1.313 1.722-2.16 2.421-.799.747-1.822 1.262-2.866 1.568-.542.102-1.074.227-1.619.191-.544.037-1.072-.07-1.598-.154-.525-.087-1.02-.29-1.526-.429-.489-.195-.968-.41-1.448-.613M773.753 171.365c2.058.658 4.159.944 6.166.657 1.997-.31 3.86-1.187 5.288-2.549 1.454-1.336 2.452-3.14 2.999-5.098.546-1.97.635-4.08.54-6.24.706 2.035.98 4.28.602 6.494l-.149.831c-.044.28-.172.537-.254.807l-.282.803c-.089.27-.25.51-.372.767-.13.256-.272.504-.41.754-.151.242-.338.462-.506.694-.177.227-.344.46-.528.681l-.617.603c-1.685 1.572-3.935 2.524-6.203 2.615-2.27.092-4.491-.602-6.274-1.82" transform="translate(-115 -378) translate(62 299) translate(53 79)"/>
                    <path fill="#FFF" d="M256.063 60.916c.133-.82 1.248-.94 1.569-.174 5.393 12.874 16.388 13.637 23.227 14.875.938.17 1.385 1.245.852 2.036-5.375 7.982-17.731 40.226-10.587 41.102 9.372 1.15 23.916-16.157 29.944-27.142 1.897-3.454 2.775-1.653 1.5.255-3.44 5.145-17.224 38.174-38.596 36.993-26.608-1.47 11.877-48.968 7.017-48.123-16.917 2.938-16.091-12.694-14.926-19.822" transform="translate(-115 -378) translate(62 299) translate(53 79)"/>
                    <path fill="#C9961A" d="M257.717 131.094c2.692.608 5.346.941 7.951.813 2.605-.124 5.133-.717 7.517-1.696 2.385-.982 4.63-2.34 6.732-3.947 2.106-1.609 4.067-3.446 6.076-5.345-1.256 2.455-2.921 4.714-4.928 6.673-2.003 1.955-4.37 3.62-7.026 4.7-2.643 1.095-5.56 1.578-8.399 1.364-2.84-.203-5.587-1.09-7.923-2.562M281.59 83.907c-.858 2.801-1.82 5.521-2.78 8.24-.942 2.722-1.933 5.416-2.846 8.13-.487 1.349-.931 2.707-1.365 4.067-.462 1.352-.849 2.721-1.249 4.083-.369 1.369-.723 2.742-.908 4.126-.094.686-.145 1.383-.06 2.05.08.653.388 1.312 1.124 1.534-.353-.006-.776-.089-1.063-.38-.312-.263-.5-.625-.662-.984-.294-.734-.377-1.501-.444-2.255-.069-1.51.063-3 .296-4.458.457-2.924 1.275-5.746 2.205-8.515.499-1.372 1-2.743 1.559-4.09.58-1.338 1.141-2.683 1.8-3.984 1.277-2.62 2.7-5.172 4.394-7.564M252.879 69.582c.342 1.839.928 3.474 1.7 5.01.767 1.532 1.713 2.946 2.829 4.178 1.118 1.229 2.407 2.275 3.896 3.016 1.485.758 3.167 1.158 5.039 1.33-1.711.766-3.763.87-5.667.324-1.91-.543-3.623-1.703-4.934-3.16-1.318-1.457-2.274-3.205-2.81-5.056-.516-1.843-.656-3.852-.053-5.642M384.045 124.192c2.298 1.35 4.64 2.497 7.05 2.93 2.408.488 4.818.011 7.06-.93 2.248-.96 4.352-2.397 6.375-3.978 2.045-1.57 3.921-3.387 5.989-5.085-.678 1.143-1.38 2.286-2.198 3.34l-1.245 1.576c-.446.5-.916.98-1.375 1.475-1.898 1.901-4.076 3.643-6.675 4.743-2.564 1.103-5.645 1.476-8.347.555-2.708-.853-4.943-2.577-6.634-4.626M414.286 122.88c.93 1.203 2.117 2.1 3.358 2.823 1.219.777 2.604 1.207 3.945 1.597 2.754.612 5.606.448 8.27-.431.666-.22 1.352-.39 1.981-.735.633-.32 1.302-.566 1.913-.945l1.851-1.109c.321-.168.582-.43.88-.635l.884-.645.887-.646c.293-.22.548-.486.834-.72l1.685-1.445c1.11-.99 2.127-2.083 3.29-3.082-.766 1.3-1.57 2.602-2.477 3.828-1 1.146-1.895 2.417-3.09 3.407-.573.517-1.118 1.076-1.744 1.537l-1.922 1.345c-.309.243-.675.4-1.025.58l-1.061.53c-.689.39-1.458.617-2.212.877-.383.112-.754.262-1.146.34l-1.186.206c-.396.057-.787.16-1.188.176-.402.014-.804.029-1.207.028-1.606.022-3.21-.284-4.72-.79-1.482-.588-2.911-1.316-4.084-2.377-1.161-1.037-2.215-2.257-2.716-3.714" transform="translate(-115 -378) translate(62 299) translate(53 79)"/>
                    <path fill="#FFF" d="M397.614 73.93c-6.665 13.032-23.876 48.528-5.177 51.319 12.105 1.805 25.429-21.048 35.296-46.806-5.273 9.849-22.352 38.952-28.85 38.656-7.866-.36 5.129-24.56 9.523-37.888 2.179-6.612-7.913-10.91-10.792-5.282" transform="translate(-115 -378) translate(62 299) translate(53 79)"/>
                    <path fill="#FFF" d="M427.072 74.112c-3.747 8.022-25.672 54.088-1.74 51.84 17.141-1.609 27.09-27.682 28.941-35.356-4.357 8.758-18.116 28.206-25.813 28.228-10.12.028 6.657-32.482 8.993-40.029 2.18-7.05-7.807-10.192-10.381-4.683" transform="translate(-115 -378) translate(62 299) translate(53 79)"/>
                    <path fill="#C9961A" d="M441.676 76.006c-.818 3.73-2.158 7.293-3.465 10.833-.645 1.777-1.362 3.521-2.03 5.284l-2.075 5.248c-.709 1.74-1.387 3.49-2.045 5.24-.688 1.742-1.292 3.508-1.889 5.267-.551 1.763-1.106 3.555-1.248 5.327-.058.86.004 1.793.614 2.221.312.208.763.258 1.213.22.457-.024.914-.153 1.371-.284-.412.234-.831.474-1.307.619-.469.136-1.01.211-1.559.002-.553-.218-.916-.75-1.107-1.242-.197-.505-.28-1.018-.33-1.523-.114-2.014.24-3.93.66-5.806.864-3.748 2.165-7.332 3.536-10.87 1.42-3.519 2.94-6.985 4.587-10.388 1.615-3.421 3.384-6.75 5.074-10.148M411.797 78.147c-.659 3.17-1.731 6.2-2.785 9.214-.516 1.514-1.104 2.995-1.652 4.494l-1.73 4.454-3.576 8.838c-.585 1.474-1.185 2.943-1.717 4.43-.28.74-.529 1.49-.744 2.244-.106.378-.203.76-.259 1.145-.059.384-.1.78.06 1.153-.28-.308-.35-.757-.4-1.16-.041-.414-.033-.826-.017-1.236.039-.82.162-1.627.292-2.43.293-1.597.674-3.169 1.124-4.716.424-1.555.956-3.071 1.463-4.594.536-1.512 1.11-3.009 1.684-4.504.612-1.48 1.214-2.962 1.854-4.428.663-1.457 1.295-2.926 2.002-4.36 1.363-2.897 2.876-5.713 4.4-8.544M490.642 39.432c-2.208 6.55-4.654 13-7.12 19.435l-7.47 19.262c-1.268 3.198-2.5 6.41-3.72 9.624-1.25 3.203-2.419 6.433-3.597 9.658-1.139 3.234-2.282 6.475-3.145 9.77-.225.823-.411 1.649-.565 2.479-.145.824-.26 1.674-.18 2.457.026.395.157.757.39.925.24.182.664.094 1.035-.047.768-.304 1.476-.827 2.156-1.353-.603.618-1.216 1.236-2.003 1.688-.387.194-.89.43-1.439.17-.518-.282-.713-.827-.805-1.264-.21-.922-.152-1.814-.092-2.694.075-.88.184-1.751.331-2.611.607-3.443 1.515-6.796 2.508-10.114 1.984-6.64 4.373-13.129 6.853-19.573 1.276-3.21 2.553-6.416 3.884-9.6 1.353-3.175 2.684-6.358 4.106-9.502 2.801-6.307 5.735-12.552 8.873-18.71M452.254 127.826c2.834.614 5.664.953 8.38.597.34-.032.67-.134 1.005-.195.33-.082.672-.1.993-.219.646-.218 1.309-.362 1.92-.67.311-.14.625-.267.94-.395.306-.147.601-.322.904-.48.297-.168.606-.31.894-.498l.855-.576c.591-.35 1.133-.785 1.681-1.21.565-.403 1.075-.88 1.6-1.342l.796-.685.753-.738c.49-.505 1.028-.965 1.504-1.492 1.994-2.018 3.808-4.23 5.787-6.357-1.307 2.583-2.804 5.088-4.642 7.361-1.816 2.285-3.914 4.4-6.396 6.086l-.947.606c-.319.197-.666.354-.998.53-.338.17-.667.352-1.011.509l-1.065.403c-.698.293-1.458.42-2.19.61-.742.15-1.503.22-2.253.263-3.033.094-5.964-.74-8.51-2.108" transform="translate(-115 -378) translate(62 299) translate(53 79)"/>
                    <path fill="#FFF" d="M476.541 34.036c-10.446 19.42-43.402 91.348-20.06 91.602 20.226.219 30.487-25.9 38.687-39.625-9.214 13.906-22.618 31.11-32.319 31.024-8.923-.08 14.103-57.046 24.365-76.481 2.402-4.55-5.547-16.048-10.673-6.52M586.459 84.902c-6.442 5.208-22.443 45.023-5.982 43.197 16.462-1.826 31.795-27.611 33.244-32.568-6.27 10.188-22.39 26.566-28.328 26.17-8.024-.535 8.042-29.9 8.993-32.541.95-2.64-4.673-6.89-7.927-4.258M595.263 67.513c-2.035 1.616-3.6 3.105-5.512 7.856-2.123 5.274 8.815 8.892 10.548 4.245 2.148-5.76 4.423-7.415 3.541-8.902-2.04-3.431-6.706-4.684-8.577-3.199" transform="translate(-115 -378) translate(62 299) translate(53 79)"/>
                    <path fill="#C9961A" d="M595.994 90.622c-.742 2.66-1.717 5.228-2.71 7.773-.987 2.55-2.053 5.059-3.079 7.577-.535 1.251-1.048 2.508-1.55 3.766-.528 1.25-.996 2.518-1.476 3.777-.45 1.266-.9 2.54-1.144 3.825-.116.627-.204 1.316.024 1.813.201.53 1.025.493 1.66.313-.298.169-.614.326-.984.384-.184.034-.384.012-.585-.045-.19-.078-.382-.2-.507-.37-.271-.33-.36-.722-.425-1.087-.059-.37-.07-.733-.07-1.093.05-1.437.332-2.812.678-4.158.69-2.695 1.67-5.275 2.704-7.82 1.07-2.53 2.213-5.023 3.466-7.461 1.242-2.444 2.569-4.837 3.998-7.194M573.036 129.35c2.514.693 5.038.71 7.493.34 2.453-.39 4.843-1.144 7.106-2.184 2.278-1.013 4.428-2.313 6.475-3.78 2.042-1.48 3.953-3.154 5.815-4.972-1.26 2.277-2.962 4.32-4.925 6.075-1.959 1.767-4.204 3.222-6.62 4.331-2.426 1.074-5.036 1.812-7.71 1.934-2.65.137-5.418-.348-7.634-1.743M606.52 72.04c-.184 1.021-.507 1.967-.876 2.886-.37.92-.786 1.812-1.248 2.675-.457.867-.966 1.703-1.5 2.524-.534.827-1.097 1.618-1.734 2.433.015-1.044.29-2.039.622-2.98.337-.943.742-1.853 1.21-2.724.466-.873.991-1.71 1.566-2.52.575-.808 1.2-1.588 1.96-2.294M629.675 97.888c-.63 1.74-1.328 3.415-2 5.093-.652 1.684-1.302 3.358-1.833 5.057-.55 1.689-.996 3.409-1.168 5.133-.11.87-.054 1.721.077 2.575.184.838.557 1.628 1.157 2.347-.81-.456-1.448-1.232-1.858-2.123-.331-.903-.558-1.875-.547-2.829-.059-1.923.36-3.783.911-5.56.586-1.77 1.32-3.475 2.206-5.095.887-1.616 1.887-3.166 3.055-4.598M614.641 131.32c2.06.484 4.109.82 6.158.83.51.004 1.021-.049 1.528-.068l.758-.042c.25-.03.5-.085.75-.125.498-.091.995-.168 1.491-.244l1.45-.414c3.861-1.125 7.251-3.473 10.128-6.306 2.936-2.803 5.332-6.182 7.512-9.69 1.134-1.735 2.104-3.573 3.122-5.397.551-.893.963-1.854 1.455-2.782.475-.933.97-1.864 1.476-2.794-1.12 4.059-2.515 8.084-4.527 11.842-.9 1.934-2.133 3.694-3.28 5.503l-1.985 2.546c-.688.83-1.469 1.587-2.203 2.38-.363.404-.79.745-1.208 1.093l-1.253 1.047c-.402.367-.874.651-1.327.958l-1.371.898c-.46.296-.978.5-1.463.752-.498.23-.975.503-1.489.696l-1.558.536c-.261.083-.519.176-.782.25l-.808.16-1.61.316c-.548.042-1.092.084-1.637.112-.272.012-.542.038-.814.039l-.816-.049c-.541-.043-1.082-.043-1.616-.122-2.14-.322-4.196-.977-6.08-1.926M650.23 78.451c1.056.763 1.995 1.673 2.763 2.754.77 1.077 1.35 2.344 1.616 3.673.277 1.33.251 2.68.064 3.97-.19 1.292-.538 2.543-1.062 3.737-.09-1.303-.074-2.566-.107-3.805-.033-1.239-.13-2.445-.365-3.603-.235-1.158-.621-2.273-1.149-3.375-.523-1.103-1.173-2.185-1.76-3.35" transform="translate(-115 -378) translate(62 299) translate(53 79)"/>
                    <path fill="#FFF" d="M627.365 84.793c-8.922-6.194-32.733 38.388-10.74 45.293 21.993 6.905 46.057-44.136 26.824-52.056-16.907-6.961-21.17 16.055-6.167 23.47 9.875 4.882 27.843-2.408 33.407-15.504-5.506 8.202-21.217 17.72-30.764 10.987-9.547-6.735-6.564-19.521 2.216-12.19 8.78 7.33-7.501 43.39-18.071 37.451-7.505-4.217 1.08-19.72 4.262-26.71-2.16-4.888-.125-10.156-.967-10.741" transform="translate(-115 -378) translate(62 299) translate(53 79)"/>
                    <path fill="#C9961A" d="M654.433 131.306c.464 1.007 1.329 1.7 2.235 2.237.91.547 1.913.928 2.926 1.25 2.034.62 4.166.965 6.265 1.021 1.047.024 2.1-.01 3.06-.214.473-.1.93-.25 1.254-.446.16-.097.278-.198.334-.28.059-.098.069-.091.077-.246.065-2.121.176-4.485.729-6.666.518-2.204 1.267-4.344 2.25-6.353.448-1.028 1.023-1.986 1.536-2.975.582-.947 1.15-1.905 1.777-2.818 2.488-3.671 5.391-7.014 8.57-10.043-2.605 3.537-5.145 7.085-7.322 10.823-.557.927-1.03 1.897-1.553 2.837-.455.972-.974 1.918-1.361 2.914-.84 1.967-1.559 3.977-2.004 6.043-.216 1.033-.394 2.071-.506 3.121-.128 1.054-.149 2.095-.218 3.238-.006.394-.194.938-.472 1.27-.276.354-.6.594-.917.764-.636.335-1.25.48-1.847.58-1.195.188-2.348.177-3.484.077-2.265-.226-4.468-.772-6.534-1.68-1.028-.458-2.022-1.016-2.903-1.73-.866-.709-1.653-1.632-1.892-2.724" transform="translate(-115 -378) translate(62 299) translate(53 79)"/>
                    <path fill="#FFF" d="M669.713 83.408c1.675 4.077-4.732 12.058-13.678 45.506-1.298 4.85 13.068 7.296 12.642 3.473-.912-8.203 11.357-42.534 12.853-46.608 1.705-4.645-14.397-8.649-11.817-2.37" transform="translate(-115 -378) translate(62 299) translate(53 79)"/>
                    <path fill="#C9961A" d="M705.513 135.325c-.953-.209-1.812-.827-2.432-1.615-.65-.78-1.047-1.718-1.381-2.654-.618-1.898-.87-3.875-.952-5.835-.16-3.928.292-7.824.988-11.648.376-1.91.795-3.807 1.296-5.684.527-1.87 1.07-3.735 1.738-5.559 1.309-3.644 2.871-7.253 5.088-10.44-1.525 3.552-2.658 7.203-3.693 10.882-1.006 3.685-1.903 7.398-2.587 11.145-.372 1.869-.664 3.749-.898 5.633-.256 1.882-.401 3.773-.475 5.659-.044 1.884.002 3.777.377 5.604.187.908.454 1.811.925 2.604.455.795 1.113 1.506 2.006 1.908M683.689 127.842c.801 2.806 1.687 5.525 2.966 8.007 1.283 2.467 2.952 4.698 5.106 6.309 2.114 1.671 4.734 2.6 7.465 2.972 2.745.368 5.598.167 8.49-.22-2.652 1.203-5.6 1.9-8.62 1.81-.758.037-1.507-.137-2.263-.222-.755-.109-1.484-.367-2.23-.548-.72-.264-1.425-.588-2.12-.917l-.993-.598c-.327-.204-.672-.386-.96-.645-.579-.509-1.224-.95-1.715-1.545-.521-.564-1.068-1.109-1.471-1.759l-.649-.94c-.202-.321-.364-.664-.548-.994l-.53-1c-.148-.345-.273-.7-.41-1.049-1.09-2.79-1.555-5.748-1.518-8.661" transform="translate(-115 -378) translate(62 299) translate(53 79)"/>
                    <path fill="#FFF" d="M667.239 130.469c2.113-16.135 20.079-37.681 30.94-47.114 3.134-2.722 13.588-2.233 10.837 3.599-4.433 9.396-20.291 47.788-1.046 54.103.972.319 1.029 1.53.035 1.782-3.096.788-7.061 1.957-11.31.07-20.589-9.135-7.834-35.595-4.255-46.637-8.392 6.678-18.123 18.941-25.201 34.197M511.669 55.16c-.855-.215-.636-1.542.237-1.414 50.902 7.53 101.346-7.249 107.628-7.546 6.743-.32 5.277 8.384-2.179 9.49-12.017 3.35-70.702 8.269-105.686-.53" transform="translate(-115 -378) translate(62 299) translate(53 79)"/>
                    <path fill="#FFF" d="M566.416 36.145c-5.89 15.918-41.814 88.431-23.382 90.885 18.071 2.405 33.788-20.211 36.812-29.703-7.46 9.92-18.158 21.57-26.21 20.089-9.52-1.75 17.138-64.252 21.89-77.093 2.05-5.538-5.694-13.41-9.11-4.178" transform="translate(-115 -378) translate(62 299) translate(53 79)"/>
                    <path fill="#C9961A" d="M541.982 128.51c2.887 1.067 5.883 1.33 8.714.829 2.831-.494 5.507-1.679 7.917-3.31.317-.176.617-.386.907-.61l.883-.653c.294-.22.594-.43.88-.658.278-.244.549-.495.833-.73.555-.486 1.147-.933 1.677-1.454.522-.53 1.058-1.046 1.603-1.559.561-.497 1.044-1.07 1.562-1.616l1.56-1.64c1.012-1.125 1.985-2.29 3.073-3.392-.67 1.379-1.412 2.728-2.193 4.059-.882 1.256-1.683 2.59-2.697 3.764-1.914 2.444-4.248 4.582-6.858 6.371-.689.399-1.35.838-2.06 1.198-.732.323-1.436.704-2.19.974-1.524.5-3.085.943-4.7.994-3.201.227-6.475-.668-8.91-2.567M621.997 56.58c-4.178 1.494-8.508 2.55-12.86 3.432-4.358.865-8.75 1.559-13.157 2.117-4.405.571-8.824 1.028-13.246 1.406l-6.632.544-3.309.26c-1.085.092-2.231.172-3.214.324l-.151.03c-.025 0-.095.038.044-.025.004-.002.051-.026.108-.068.041-.037.086-.05.225-.243.127-.232.097-.224.095-.194l-.01.026-.033.104-.068.204-.272.796-.55 1.573-1.105 3.132-2.226 6.252-2.209 6.254-2.158 6.267c-1.41 4.186-2.8 8.378-4.024 12.613-.605 2.119-1.172 4.248-1.615 6.4-.21 1.077-.408 2.158-.491 3.25-.043.544-.06 1.091-.021 1.635.043.541.137 1.092.433 1.567-.361-.428-.544-.986-.665-1.533-.125-.55-.178-1.116-.196-1.677-.043-1.125.017-2.25.132-3.364.223-2.23.617-4.431 1.078-6.612.925-4.365 2.114-8.658 3.414-12.91.639-2.128 1.326-4.242 2.038-6.346.715-2.102 1.415-4.21 2.18-6.294l2.301-6.246c.384-1.041.797-2.072 1.193-3.104l.597-1.547.292-.769.07-.187.033-.092.009-.024c.001.015-.023.005.115-.24.147-.21.207-.231.261-.278.073-.053.134-.086.154-.095.263-.123.33-.118.439-.148l.258-.049c1.21-.168 2.278-.216 3.402-.296l3.322-.193 6.63-.38c4.415-.282 8.827-.596 13.23-1.004 4.4-.423 8.797-.906 13.168-1.578 4.37-.67 8.725-1.48 12.991-2.69M511.38 56.664c3.35.884 6.693 1.581 10.063 2.17 3.37.573 6.755 1.07 10.154 1.48 3.394.446 6.804.803 10.217 1.197 3.416.383 6.837.757 10.266 1.264-3.455.274-6.914.306-10.37.196-3.457-.098-6.909-.38-10.35-.797-3.433-.453-6.86-1.038-10.223-1.915-3.36-.867-6.684-1.985-9.758-3.595M578.233 39.5c-.081 1.218-.346 2.371-.653 3.508-.32 1.132-.706 2.24-1.152 3.324-.446 1.084-.952 2.143-1.525 3.173-.584 1.025-1.212 2.032-2.018 2.958.084-1.235.349-2.389.656-3.524.317-1.13.702-2.231 1.148-3.308.445-1.076.95-2.13 1.522-3.157.584-1.024 1.21-2.032 2.022-2.974" transform="translate(-115 -378) translate(62 299) translate(53 79)"/>
                    <path fill="#FFF" d="M96.484 157.497c-6.45 1.31-18.505 3.78-21.778 9.003-2.95 4.708 1.905 5.43 4.776 4.8 40.713-8.936 83.116-15.516 126.567-20.133 2.184-2.486 4.51-6.329 5.901-9.482-43.141 3.745-82.212 9.053-115.466 15.812M737.52 164.577c-165.245-28.087-350.504-35.058-496.51-25.134-1.166 3.197-1.941 4.735-4.062 8.786 165.294-13.965 343.359-1.31 500.35 17.718.863.105 1.081-1.224.222-1.37" transform="translate(-115 -378) translate(62 299) translate(53 79)"/>
                    <path fill="#C9961A" d="M82.935 174.779c9.484-3.01 19.2-5.261 28.94-7.261 9.746-2 19.545-3.707 29.36-5.294 9.823-1.55 19.67-2.939 29.543-4.115 4.934-.604 9.88-1.13 14.831-1.595 2.476-.229 4.96-.405 7.438-.6l3.724-.233c1.24-.078 2.492-.061 3.73-.095-4.94.531-9.85 1.256-14.76 2.023l-14.726 2.24-14.717 2.282-7.358 1.137-7.352 1.176c-4.903.768-9.806 1.544-14.7 2.363-4.905.762-9.79 1.636-14.69 2.429l-7.333 1.277-7.324 1.328c-2.447.424-4.874.931-7.316 1.392-1.223.22-2.426.519-3.64.778l-3.65.768zM235.57 152.254c41.029-4.993 82.439-5.88 123.734-6.14 10.329.011 20.66-.028 30.989.085l30.984.49 30.977.818 30.968 1.113c5.162.18 10.318.455 15.477.713l15.474.775c10.319.47 20.626 1.148 30.937 1.757l15.465.936 15.455 1.091 15.454 1.097c5.153.353 10.295.846 15.443 1.268l15.436 1.315 7.718.657 7.712.742 15.42 1.498 7.71.75c2.57.244 5.14.497 7.705.802l30.783 3.525 30.718 4.022-30.787-3.412-30.827-3.008c-10.277-.98-20.568-1.81-30.85-2.723l-7.715-.662-7.721-.578-15.44-1.155c-10.292-.811-20.597-1.436-30.895-2.144l-15.449-1.038-15.46-.882c-10.306-.574-20.609-1.217-30.923-1.652l-15.467-.722c-5.155-.242-10.311-.492-15.47-.665l-30.943-1.217-30.954-.92-30.96-.596-30.964-.311c-10.322-.045-20.643.038-30.966.05l-15.48.27-7.74.142c-2.58.045-5.16.085-7.739.192l-15.472.531c-2.579.107-5.162.14-7.737.305l-7.727.458-7.728.459-3.865.229c-1.289.065-2.57.227-3.856.332l-15.424 1.403zM547.519 50.608c0-3.41-2.356-5.765-5.766-5.765 3.41 0 5.766-2.355 5.766-5.766 0 3.411 2.354 5.766 5.765 5.766-3.41 0-5.765 2.355-5.765 5.765M461.608 36.32c0-3.411-2.356-5.766-5.766-5.766 3.41 0 5.766-2.355 5.766-5.766 0 3.41 2.354 5.766 5.765 5.766-3.41 0-5.765 2.355-5.765 5.766M678.807 40.105c0-7-4.832-11.832-11.831-11.832 7 0 11.831-4.833 11.831-11.832 0 7 4.832 11.832 11.832 11.832-7 0-11.832 4.832-11.832 11.832M815.73 92.22c5.646 0 9.543-3.9 9.543-9.544 0 5.645 3.898 9.543 9.544 9.543-5.646 0-9.544 3.898-9.544 9.543 0-5.645-3.897-9.543-9.543-9.543M721.11 71.068c0-3.41-2.356-5.765-5.766-5.765 3.41 0 5.766-2.355 5.766-5.765 0 3.41 2.354 5.765 5.766 5.765-3.412 0-5.766 2.355-5.766 5.765M20.928 92.641c0-3.41-2.355-5.765-5.766-5.765 3.411 0 5.766-2.355 5.766-5.765 0 3.41 2.354 5.765 5.765 5.765-3.41 0-5.765 2.355-5.765 5.765M299.622 68.594c0-3.828-2.642-6.469-6.468-6.469 3.826 0 6.468-2.643 6.468-6.47 0 3.827 2.642 6.47 6.469 6.47-3.827 0-6.469 2.641-6.469 6.469M400.928 43.148c0-3.41-2.354-5.766-5.765-5.766 3.41 0 5.765-2.355 5.765-5.765 0 3.41 2.355 5.765 5.766 5.765-3.411 0-5.766 2.356-5.766 5.766M89.459 19.978c0-3.41-2.355-5.765-5.766-5.765 3.411 0 5.766-2.356 5.766-5.766 0 3.41 2.354 5.766 5.766 5.766-3.412 0-5.766 2.354-5.766 5.765" transform="translate(-115 -378) translate(62 299) translate(53 79)"/>
                    <path fill="#FFF" d="M275.59 63.225c0-5.241-3.619-8.86-8.86-8.86 5.241 0 8.86-3.619 8.86-8.86 0 5.241 3.619 8.86 8.86 8.86-5.241 0-8.86 3.619-8.86 8.86M793.83 183.94c0-3.41-2.354-5.765-5.765-5.765 3.41 0 5.765-2.355 5.765-5.765 0 3.41 2.355 5.765 5.766 5.765-3.41 0-5.766 2.355-5.766 5.766M52.368 183.134c0-3.41-2.355-5.766-5.766-5.766 3.411 0 5.766-2.355 5.766-5.766 0 3.411 2.355 5.766 5.766 5.766-3.411 0-5.766 2.355-5.766 5.766M754.888 162.34c0-3.41-2.355-5.765-5.766-5.765 3.411 0 5.766-2.355 5.766-5.766 0 3.41 2.355 5.766 5.766 5.766-3.41 0-5.766 2.354-5.766 5.765M236.825 65.757c0-3.411-2.355-5.766-5.766-5.766 3.411 0 5.766-2.356 5.766-5.766 0 3.41 2.355 5.766 5.766 5.766-3.411 0-5.766 2.355-5.766 5.766M694.42 47.48c0-3.41-2.354-5.766-5.765-5.766 3.41 0 5.765-2.355 5.765-5.766 0 3.411 2.356 5.766 5.766 5.766-3.41 0-5.766 2.355-5.766 5.766" transform="translate(-115 -378) translate(62 299) translate(53 79)"/>
                    <g transform="translate(-115 -378) translate(62 299) translate(53 79) translate(0 149.543)">
                        <mask id="e5vju5hf6b" fill="#fff">
                            <use xlink:href="#tjve60cxaa"/>
                        </mask>
                        <path fill="#C9961A" d="M8.32 17.078c0-4.922-3.397-8.321-8.32-8.321 4.923 0 8.32-3.399 8.32-8.32 0 4.921 3.4 8.32 8.322 8.32-4.922 0-8.321 3.399-8.321 8.321" mask="url(#e5vju5hf6b)"/>
                    </g>
                    <path fill="#C9961A" d="M806.783 165.75c0-4.924-3.399-8.322-8.322-8.322 4.923 0 8.322-3.399 8.322-8.321 0 4.922 3.398 8.321 8.32 8.321-4.922 0-8.32 3.398-8.32 8.321" transform="translate(-115 -378) translate(62 299) translate(53 79)"/>
                    <g transform="translate(-115 -378) translate(62 299) translate(53 79) translate(44.226 .485)">
                        <mask id="h9fnau79hd" fill="#fff">
                            <use xlink:href="#pqneifjdnc"/>
                        </mask>
                        <path fill="#FFF" d="M24.746 12.661c-7.292 0-12.327 5.035-12.327 12.327 0-7.292-5.035-12.327-12.328-12.327 7.293 0 12.328-5.035 12.328-12.327 0 7.292 5.035 12.327 12.327 12.327" mask="url(#h9fnau79hd)"/>
                    </g>
                    <path fill="#C9961A" d="M137.532 61.553c-5.342 0-9.03 3.689-9.03 9.03 0-5.341-3.689-9.03-9.03-9.03 5.341 0 9.03-3.688 9.03-9.03 0 5.342 3.688 9.03 9.03 9.03M53.354 39.695c-5.341 0-9.03 3.689-9.03 9.03 0-5.341-3.688-9.03-9.03-9.03 5.342 0 9.03-3.688 9.03-9.03 0 5.342 3.689 9.03 9.03 9.03" transform="translate(-115 -378) translate(62 299) translate(53 79)"/>
                    <path fill="#FFF" d="M850.832 72.432c-5.34 0-9.029 3.688-9.029 9.03 0-5.342-3.688-9.03-9.03-9.03 5.342 0 9.03-3.689 9.03-9.03 0 5.341 3.689 9.03 9.03 9.03M34.918 58.161c-6.186 0-10.457 4.271-10.457 10.457 0-6.186-4.27-10.457-10.457-10.457 6.186 0 10.457-4.271 10.457-10.458 0 6.187 4.271 10.458 10.457 10.458M638.07 26.175c-5.34 0-9.029 3.689-9.029 9.03 0-5.341-3.688-9.03-9.03-9.03 5.342 0 9.03-3.688 9.03-9.03 0 5.342 3.688 9.03 9.03 9.03" transform="translate(-115 -378) translate(62 299) translate(53 79)"/>
                    <path fill="#C9961A" d="M836.9 51.715c0-3.41-2.355-5.765-5.765-5.765 3.41 0 5.766-2.355 5.766-5.766 0 3.411 2.354 5.766 5.765 5.766-3.41 0-5.765 2.355-5.765 5.765" transform="translate(-115 -378) translate(62 299) translate(53 79)"/>
                    <path fill="#FFF" d="M20.935 176.197c0 1.918-1.555 3.473-3.474 3.473-1.918 0-3.472-1.555-3.472-3.473 0-1.919 1.554-3.473 3.472-3.473 1.919 0 3.474 1.554 3.474 3.473M134.525 39.308c0 1.61-1.306 2.915-2.915 2.915-1.61 0-2.915-1.305-2.915-2.915s1.305-2.916 2.915-2.916 2.915 1.306 2.915 2.916" transform="translate(-115 -378) translate(62 299) translate(53 79)"/>
                    <path fill="#C9961A" d="M762.014 176.22c0 1.07-.868 1.937-1.938 1.937-1.07 0-1.937-.867-1.937-1.938 0-1.07.867-1.937 1.937-1.937s1.938.867 1.938 1.937" transform="translate(-115 -378) translate(62 299) translate(53 79)"/>
                </g>
            </g>
        </g>
    </g>
</svg>
