<svg xmlns="http://www.w3.org/2000/svg" width="65" height="65" viewBox="0 0 65 65">
    <g fill="none" fill-rule="evenodd">
        <g>
            <g>
                <g fill="#FFF">
                    <path fill-rule="nonzero" d="M23.743 7.774c3.975 0 7.723.977 11.015 2.704-1.575.328-2.758 1.724-2.758 3.395v1c0 2.468 2 4.469 4.468 4.469l5.936-.001.001 5.937c0 2.468 2 4.469 4.468 4.469h.547c.044.584.065 1.174.065 1.77 0 13.112-10.63 23.742-23.742 23.742C10.63 55.26 0 44.63 0 31.517 0 18.404 10.63 7.774 23.743 7.774zm9.28 31.366c-2.318 2.694-5.705 4.238-9.294 4.238-3.588 0-6.977-1.544-9.293-4.238-.719-.836-1.995-.943-2.852-.241-.854.702-.965 1.95-.246 2.785 3.088 3.59 7.605 5.65 12.39 5.65 4.788 0 9.304-2.06 12.392-5.65.719-.835.608-2.083-.247-2.785s-2.132-.598-2.85.24zm-1.375-15.538c-1.855 0-2.968 1.484-2.968 3.957 0 2.474 1.113 3.958 2.968 3.958s2.968-1.484 2.968-3.958c0-2.473-1.113-3.957-2.968-3.957zm-15.828 0c-1.855 0-2.968 1.484-2.968 3.957 0 2.474 1.113 3.958 2.968 3.958 1.854 0 2.967-1.484 2.967-3.958 0-2.473-1.113-3.957-2.967-3.957z" transform="translate(-152 -235) translate(152 235) translate(2.312 4.624)"/>
                    <path d="M47.561.376c1.916 0 3.468 1.552 3.468 3.468v6.936h6.937c1.916 0 3.468 1.553 3.468 3.469 0 1.915-1.552 3.468-3.468 3.468H51.03v6.937c0 1.915-1.552 3.468-3.468 3.468-1.915 0-3.468-1.553-3.468-3.468l-.001-6.937h-6.936c-1.915 0-3.468-1.553-3.468-3.468 0-1.916 1.553-3.468 3.468-3.468l6.936-.001V3.844c0-1.916 1.554-3.468 3.47-3.468z" transform="translate(-152 -235) translate(152 235) translate(2.312 4.624)"/>
                </g>
            </g>
        </g>
    </g>
</svg>
