<svg xmlns="http://www.w3.org/2000/svg" width="36" height="34" viewBox="0 0 36 34">
    <g fill="none" fill-rule="evenodd">
        <g fill="#FFF">
            <path fill-rule="nonzero" d="M18.618 20.188c-.445-.364-1.107-.31-1.48.125-1.203 1.398-2.96 2.2-4.823 2.2-1.862 0-3.62-.802-4.823-2.2-.373-.434-1.035-.49-1.48-.125-.443.364-.501 1.012-.128 1.445 1.603 1.864 3.947 2.932 6.43 2.932 2.485 0 4.83-1.068 6.431-2.932.374-.433.316-1.08-.127-1.445m-2.193-7.939c-.963 0-1.54.77-1.54 2.054 0 1.283.577 2.054 1.54 2.054.962 0 1.54-.77 1.54-2.054 0-1.284-.578-2.054-1.54-2.054m-8.215 0c-.963 0-1.54.77-1.54 2.054 0 1.283.577 2.054 1.54 2.054.963 0 1.54-.77 1.54-2.054 0-1.284-.577-2.054-1.54-2.054m4.112 16.43C5.517 28.679 0 23.162 0 16.357 0 9.55 5.517 4.034 12.322 4.034c6.805 0 12.322 5.517 12.322 12.323 0 6.805-5.517 12.322-12.322 12.322" transform="translate(1.2 2.4)"/>
            <path stroke="#725DFF" stroke-width="1.2" d="M24.766-.6c.662 0 1.262.269 1.697.703.434.434.703 1.034.703 1.697h0v3h3c.662 0 1.262.269 1.697.703.434.434.703 1.034.703 1.697s-.27 1.263-.703 1.697c-.435.434-1.035.703-1.697.703h0-3v3c0 .663-.27 1.263-.703 1.697-.435.434-1.035.703-1.697.703-.663 0-1.263-.269-1.698-.703-.434-.434-.702-1.034-.702-1.697h0v-3h-3c-.663 0-1.263-.269-1.698-.703-.434-.434-.702-1.034-.702-1.697s.268-1.263.702-1.697c.435-.434 1.035-.703 1.698-.703h3v-3c0-.663.268-1.263.702-1.697.435-.434 1.035-.703 1.698-.703z" transform="translate(1.2 2.4)"/>
        </g>
    </g>
</svg>
