<svg xmlns="http://www.w3.org/2000/svg" width="47" height="46" viewBox="0 0 47 46">
    <g fill="none" fill-rule="evenodd">
        <path fill="#725DFF" fill-rule="nonzero" d="M34.827 16.276C34.827 10.05 29.938 5 23.913 5 17.888 5 13 10.05 13 16.276c0 5.59 3.933 10.226 9.094 11.119v3.915h-5.456v3.759h5.456v5.011h3.638V35.07h5.457V31.31h-5.457v-3.915c5.161-.893 9.095-5.528 9.095-11.12zm-18.19 0c0-4.143 3.267-7.517 7.276-7.517 4.01 0 7.276 3.374 7.276 7.517 0 4.142-3.267 7.517-7.276 7.517s-7.275-3.375-7.275-7.517z"/>
    </g>
</svg>
