<svg xmlns="http://www.w3.org/2000/svg" width="47" height="46" viewBox="0 0 47 46">
    <g fill="none" fill-rule="evenodd">
        <path fill="#FFF" d="M23.505 2c8.285 0 11.442 6.716 11.442 15 0 .377-.007.75-.022 1.12.398 1.287.995 3.274 1.835 3.88 1.166.84 2.68.92 3.108 2.173.486 1.42-2.293 3.58-6.688 5.105-.108.037-.251.056-.416.055.919 2.244 1.419 4.866 1.419 7.667v6.592l-22 .01V37c0-2.84.513-5.495 1.456-7.758-4.335-1.524-7.066-3.66-6.584-5.069.428-1.254 1.943-1.332 3.108-2.173.982-.708 1.633-3.305 2.02-4.466l.003-.01c-.002-.173-.003-.348-.003-.524 0-8.284 3.038-15 11.322-15z"/>
    </g>
</svg>
