<svg xmlns="http://www.w3.org/2000/svg" width="102" height="102" viewBox="0 0 102 102">
    <defs>
        <linearGradient id="gtodmn3m2a" x1="88.584%" x2="21.125%" y1="0%" y2="41.269%">
            <stop offset="0%" stop-color="#A16D32"/>
            <stop offset="56.401%" stop-color="#F8E889"/>
            <stop offset="76.021%" stop-color="#D6BA66"/>
            <stop offset="100%" stop-color="#E7B866"/>
        </linearGradient>
    </defs>
    <g fill="none" fill-rule="evenodd">
        <g>
            <g>
                <g>
                    <g>
                        <g fill="url(#gtodmn3m2a)" fill-rule="nonzero" transform="translate(-92 -1696) translate(61 1656) translate(0 9) translate(31 31) translate(13 13)">
                            <path d="M64.602 11.21C57.23 3.805 47.102-.251 36.618.013 15.742.63-.605 17.824.018 38.545c.088 4.32.976 8.553 2.575 12.521 1.333 3.351 3.11 6.437 5.33 9.259l-3.109 7.318c-1.243 2.822.09 6.085 2.932 7.32.977.44 2.132.528 3.198.352l14.392-2.47c5.153 1.764 10.572 2.382 15.99 1.853 18.568-1.852 33.049-16.93 34.026-35.447.533-10.493-3.376-20.634-10.75-28.04zM34.931 52.39h-9.862c-1.51 0-2.842-1.234-2.842-2.822 0-1.499 1.243-2.821 2.842-2.821h9.862c1.51 0 2.842 1.234 2.842 2.821 0 1.588-1.243 2.822-2.842 2.822zm15.368-11.463H25.07c-1.51 0-2.842-1.234-2.842-2.822 0-1.587 1.243-2.821 2.842-2.821H50.3c1.51 0 2.843 1.234 2.843 2.821 0 1.588-1.332 2.822-2.843 2.822zm0-11.551H25.07c-1.51 0-2.842-1.235-2.842-2.822 0-1.499 1.243-2.821 2.842-2.821H50.3c1.51 0 2.843 1.234 2.843 2.821 0 1.5-1.332 2.822-2.843 2.822z"/>
                        </g>
                    </g>
                </g>
            </g>
        </g>
    </g>
</svg>
