<svg xmlns="http://www.w3.org/2000/svg" width="93" height="69" viewBox="0 0 93 69">
    <g fill="#ADA7D9" fill-rule="evenodd">
        <path d="M73.35 0c10.425 0 18.876 8.451 18.876 18.876 0 7.538-4.418 14.044-10.807 17.07.102.145.21.293.32.44 2.91 3.868 4.727 9.352 5.454 16.453l-28.882.014c-.457-6.398 1.62-11.887 6.23-16.467.184-.183.36-.364.53-.544-6.276-3.067-10.597-9.512-10.597-16.966C54.474 8.451 62.925 0 73.35 0zM18.876 0c10.425 0 18.876 8.451 18.876 18.876 0 7.538-4.419 14.044-10.807 17.07.102.145.21.293.32.44 2.91 3.868 4.727 9.352 5.453 16.453l-28.881.014c-.457-6.398 1.62-11.887 6.23-16.467.184-.183.36-.364.53-.544C4.32 32.775 0 26.33 0 18.876 0 8.451 8.451 0 18.876 0z"/>
        <path stroke="#FFF" stroke-width="2.64" d="M45 6.44c6.195 0 11.804 2.49 15.863 6.516 4.064 4.03 6.577 9.596 6.577 15.745 0 4.285-1.22 8.287-3.336 11.684-1.848 2.968-4.38 5.474-7.379 7.3l-.313.185.248.363c2.686 4.022 4.473 9.392 5.311 16.134l.078.657.23 2.12-34.474.017c-.83-7.26 1.11-13.537 5.833-18.834l.254-.281-.055-.03c-3.015-1.718-5.59-4.112-7.515-6.972l-.258-.393c-2.218-3.453-3.504-7.553-3.504-11.95 0-6.149 2.513-11.715 6.577-15.745C33.197 8.931 38.805 6.44 45 6.44z"/>
    </g>
</svg>
