<svg xmlns="http://www.w3.org/2000/svg" width="427" height="509" viewBox="0 0 427 509">
    <defs>
        <linearGradient id="prefix__a" x1="88.584%" x2="21.125%" y1="32.612%" y2="46.964%">
            <stop offset="0%" stop-color="#A16D32"/>
            <stop offset="56.401%" stop-color="#F8E889"/>
            <stop offset="76.021%" stop-color="#D6BA66"/>
            <stop offset="100%" stop-color="#E7B866"/>
        </linearGradient>
        <linearGradient id="prefix__b" x1="91.967%" x2="1.564%" y1="0%" y2="81.65%">
            <stop offset="0%" stop-color="#A16D32"/>
            <stop offset="56.401%" stop-color="#F8E889"/>
            <stop offset="76.021%" stop-color="#D6BA66"/>
            <stop offset="100%" stop-color="#E7B866"/>
        </linearGradient>
        <linearGradient id="prefix__c" x1="85.151%" x2="14.849%" y1="0%" y2="100%">
            <stop offset="0%" stop-color="#A16D32"/>
            <stop offset="49.574%" stop-color="#F8E889"/>
            <stop offset="76.021%" stop-color="#D6BA66"/>
            <stop offset="100%" stop-color="#E7B866"/>
        </linearGradient>
    </defs>
    <g fill="none" fill-rule="evenodd">
        <path fill="#FFF" fill-rule="nonzero" d="M129.4 508v-56h-9.36v56h9.36zm38.96.8c7.76 0 14.72-3.12 19.76-8.16l-6.56-6.64c-3.36 3.36-8.08 5.44-13.2 5.44-10.32 0-18.56-7.44-18.56-19.44 0-11.28 7.04-19.44 18.56-19.44 5.12 0 9.84 2.08 13.2 5.44l6.56-6.56c-5.04-5.12-12-8.24-19.76-8.24-16.4 0-28.08 11.92-28.08 28.8 0 17.6 12.64 28.8 28.08 28.8zm54.8-.08c36.8 0 36.72-57.44 0-57.44-36.88 0-36.96 57.44 0 57.44zm0-9.04c-24.24 0-24.16-39.28 0-39.28 24.24 0 24.24 39.28 0 39.28zm47.68 8.32v-39.84L298.68 508h9.44v-56h-9.28v39.84L270.92 452h-9.44v56h9.36z"/>
        <path fill="url(#prefix__a)" d="M0 157.443L426.429 157.443 81.84 408.912 132.645 253.326z"/>
        <path fill="url(#prefix__b)" d="M172.154 132.549L214.316 0 256.479 132.549 232.397 132.549 214.316 83.601 195.409 132.549z"/>
        <path fill="url(#prefix__c)" d="M306.015 276.114L346.243 408.912 234.896 326.821 256.479 311.158 301.137 346.76 283.886 291.268z"/>
    </g>
</svg>
