<svg xmlns="http://www.w3.org/2000/svg" xmlns:xlink="http://www.w3.org/1999/xlink" width="92" height="92" viewBox="0 0 92 92">
    <defs>
        <path id="1q2o90x32a" d="M0 0.019L91.979 0.019 91.979 91.812 0 91.812z"/>
    </defs>
    <g fill="none" fill-rule="evenodd">
        <path fill="#100A39" d="M60 67c0-1.654-1.409-3-3.14-3H36.14C34.41 64 33 65.346 33 67s1.409 3 3.14 3h20.72C58.59 70 60 68.654 60 67"/>
        <mask id="1qjqo5wi9b" fill="#fff">
            <use xlink:href="#1q2o90x32a"/>
        </mask>
        <path fill="#100A39" d="M26.398 59.181c.177-.986-.107-1.978-.778-2.722L9.598 38.7l22.833-3.632c1.035-.165 1.928-.824 2.39-1.763l11.182-22.752 11.183 22.752c.46.939 1.354 1.598 2.388 1.763L82.387 38.7 66.385 56.46c-.67.744-.954 1.736-.777 2.721l4.268 23.789-22.48-10.743c-.442-.212-.917-.318-1.393-.318-.475 0-.95.106-1.394.318L22.13 82.97l4.268-23.789zM91.794 35.38c-.395-1.114-1.366-1.92-2.534-2.107L62.244 28.97 48.9 1.822C48.362.727 47.225.019 46.003.019c-1.222 0-2.36.708-2.897 1.803L29.763 28.97 2.72 33.272c-1.169.186-2.14.993-2.535 2.107-.395 1.114-.148 2.35.644 3.229l18.938 20.99-5.1 28.424c-.214 1.195.254 2.394 1.222 3.13.574.436 1.26.66 1.952.66.474 0 .95-.105 1.396-.318l26.766-12.791 26.766 12.79c1.097.525 2.38.394 3.349-.341.967-.736 1.436-1.935 1.221-3.13l-5.1-28.426 18.912-20.99c.791-.878 1.038-2.114.643-3.227z" mask="url(#1qjqo5wi9b)"/>
        <path fill="#100A39" d="M39.28 45.5c0-3.98 3.24-7.22 7.22-7.22 3.98 0 7.22 3.24 7.22 7.22 0 3.98-3.24 7.22-7.22 7.22-3.98 0-7.22-3.24-7.22-7.22M46.5 59C53.944 59 60 52.944 60 45.5S53.944 32 46.5 32 33 38.056 33 45.5 39.056 59 46.5 59"/>
    </g>
</svg>
