<?xml version="1.0" encoding="UTF-8"?>
<svg width="112px" height="113px" viewBox="0 0 112 113" version="1.1" xmlns="http://www.w3.org/2000/svg" xmlns:xlink="http://www.w3.org/1999/xlink">
    <title>StarKing</title>
    <defs>
        <linearGradient x1="118.669885%" y1="19.9369347%" x2="-25.9352908%" y2="62.7183036%" id="linearGradient-1">
            <stop stop-color="#FF8F00" offset="0%"></stop>
            <stop stop-color="#FFD700" offset="56.4009754%"></stop>
            <stop stop-color="#FFCF00" offset="76.0205349%"></stop>
            <stop stop-color="#FFFED5" offset="100%"></stop>
        </linearGradient>
        <linearGradient x1="133.224344%" y1="39.0654964%" x2="7.10542736e-13%" y2="46.1216644%" id="linearGradient-2">
            <stop stop-color="#A16D32" offset="0%"></stop>
            <stop stop-color="#E7B866" offset="100%"></stop>
        </linearGradient>
        <linearGradient x1="90.9842362%" y1="99.6292334%" x2="2.23813657%" y2="1.62457646%" id="linearGradient-3">
            <stop stop-color="#52296E" offset="0%"></stop>
            <stop stop-color="#0A0D37" offset="100%"></stop>
        </linearGradient>
        <linearGradient x1="118.669885%" y1="22.7369148%" x2="-25.9352908%" y2="61.5337605%" id="linearGradient-4">
            <stop stop-color="#FF8F00" offset="0%"></stop>
            <stop stop-color="#FFD700" offset="56.4009754%"></stop>
            <stop stop-color="#FFCF00" offset="76.0205349%"></stop>
            <stop stop-color="#FFFED5" offset="100%"></stop>
        </linearGradient>
        <linearGradient x1="86.1959198%" y1="0%" x2="8.22485456%" y2="81.6503352%" id="linearGradient-5">
            <stop stop-color="#A16D32" offset="0%"></stop>
            <stop stop-color="#F8E889" offset="56.4009754%"></stop>
            <stop stop-color="#D6BA66" offset="76.0205349%"></stop>
            <stop stop-color="#E7B866" offset="100%"></stop>
        </linearGradient>
        <linearGradient x1="82.9982415%" y1="0%" x2="17.0017585%" y2="100%" id="linearGradient-6">
            <stop stop-color="#A16D32" offset="0%"></stop>
            <stop stop-color="#F8E889" offset="49.574361%"></stop>
            <stop stop-color="#D6BA66" offset="76.0205349%"></stop>
            <stop stop-color="#E7B866" offset="100%"></stop>
        </linearGradient>
        <linearGradient x1="50%" y1="104.924129%" x2="50%" y2="0%" id="linearGradient-7">
            <stop stop-color="#52296E" stop-opacity="0" offset="0%"></stop>
            <stop stop-color="#FFFFFF" offset="100%"></stop>
        </linearGradient>
    </defs>
    <g id="Icon-App" stroke="none" stroke-width="1" fill="none" fill-rule="evenodd">
        <g id="StarKing">
            <g id="Group-19-Copy" transform="translate(18.000000, 0.000000)">
                <g id="crown-copy" transform="translate(59.500000, 21.000000) rotate(22.000000) translate(-59.500000, -21.000000) translate(39.000000, 7.000000)" fill-rule="nonzero">
                    <path d="M38.3481458,4.55049108 C36.9962651,4.55049108 35.9003147,5.6589736 35.9003147,7.02631286 C35.900831,7.28586593 35.9421379,7.5436782 36.0226862,7.79011725 L28.4100381,12.907111 C27.1029639,13.7494254 25.379666,13.4702593 24.3980552,12.2572128 L22.3724019,4.35662693 C22.6820884,3.93494749 22.8494957,3.42367494 22.8497252,2.89835996 C22.8497252,1.53102069 21.7537748,0.422538181 20.4018942,0.422538181 C19.0500135,0.422538181 17.9540631,1.53102069 17.9540631,2.89835996 C17.9542926,3.42367494 18.1217,3.93494749 18.4313864,4.35662693 L14.974444,11.9625848 C13.9930053,13.1749349 12.2705107,13.454043 10.9637233,12.6124829 L5.56486454,8.00516667 C5.64547022,7.75872762 5.68677705,7.50091535 5.68723601,7.24136228 C5.68746549,5.87402302 4.59174456,4.76536643 3.23980656,4.76513432 C1.8879833,4.76490221 0.791631243,5.87321065 0.791631243,7.24054991 C0.791631243,8.52409873 1.76107955,9.59498 3.02524054,9.70726151 L8.65338595,24.9051148 C8.7024378,25.2035457 8.95762219,25.4225382 9.25675246,25.4225382 L30.063173,25.4225382 C30.3623032,25.4225382 30.6174876,25.2035457 30.6665395,24.9051148 L38.5623102,9.49221208 C39.908798,9.37006605 40.9024566,8.16700015 40.7816915,6.80511539 C40.6686715,5.53032858 39.6135689,4.55287017 38.3481458,4.55049108 Z" id="Path" fill="url(#linearGradient-1)"></path>
                    <path d="M21.1052504,27.0419079 C17.4135773,27.0419079 13.6903763,26.4391107 11.8277283,25.2707586 C11.0573619,24.7875437 10.6052504,24.2075883 10.6052504,23.5335273 C10.6052504,22.5048815 11.8512199,21.5030655 14.0404661,20.6164347 C15.9076622,19.8602321 18.8073452,19.0419079 21.6958426,19.0419079 C24.6792924,19.0419079 27.2533518,19.7724625 28.8530965,20.6608589 C30.5467199,21.6013896 31.6052504,22.546801 31.6052504,23.5335273 C31.6052504,24.1806428 31.1885627,24.7410259 30.4736243,25.2123455 C28.6432454,26.4190137 24.8579583,27.0419079 21.1052504,27.0419079 Z M21.1052504,21.1945886 C14.9778988,21.1945886 11.7718988,22.7148686 11.7718988,23.5335273 C11.7718988,24.352186 14.9778988,25.872466 21.1052504,25.872466 C27.232602,25.872466 30.438602,24.352186 30.438602,23.5335273 C30.438602,22.7148686 27.232602,21.1945886 21.1052504,21.1945886 Z" id="Shape" fill="url(#linearGradient-2)"></path>
                </g>
                <ellipse id="Oval-Copy-9" stroke="#1D1546" stroke-width="0.513887988" fill="url(#linearGradient-3)" cx="38.166435" cy="56.9006409" rx="37.7723092" ry="37.6320015"></ellipse>
                <g id="Group-Copy-4" transform="translate(8.686813, 25.968276)">
                    <polygon id="Path-4" fill="url(#linearGradient-4)" points="0.794125058 21.5634761 57.856316 21.5634761 11.7454583 55.525951 18.543847 34.513133"></polygon>
                    <polygon id="Path-5" fill="url(#linearGradient-5)" points="23.8907261 18.7332699 29.3252205 0.336929314 34.7597149 18.7332699 31.6557497 18.7332699 29.3252205 11.9398115 26.8882536 18.7332699"></polygon>
                    <polygon id="Path-6" fill="url(#linearGradient-6)" points="41.587932 37.1296104 46.9873272 55.525951 32.0424677 44.1539019 34.9392476 41.9841898 40.9331929 46.9160424 38.6177508 39.2288675"></polygon>
                </g>
                <path d="M38.166435,46.6373677 C50.6119599,46.6373677 62.203359,41.2765065 62.203359,34.6635491 C62.203359,28.0505916 50.6119599,22.6897304 38.166435,22.6897304 C25.72091,22.6897304 14.1295109,28.0505916 14.1295109,34.6635491 C14.1295109,41.2765065 25.72091,46.6373677 38.166435,46.6373677 Z" id="Oval-Copy-9" fill-opacity="0.3" fill="url(#linearGradient-7)"></path>
            </g>
            <rect id="Rectangle" stroke="#979797" opacity="0" x="0" y="1" width="112" height="112"></rect>
        </g>
    </g>
</svg>