<svg xmlns="http://www.w3.org/2000/svg" width="47" height="46" viewBox="0 0 47 46">
    <g fill="none" fill-rule="evenodd">
        <path fill="#725DFF" fill-rule="nonzero" d="M35.649 7h-9.965v3.697h7.326l-8.307 8.211c-1.83-1.286-4.071-2.049-6.493-2.049C12.021 16.86 7 21.827 7 27.951c0 6.123 5.021 11.091 11.21 11.091 6.19 0 11.21-4.968 11.21-11.091 0-2.396-.77-4.614-2.07-6.424l8.299-8.219v7.248h3.737V7h-3.737zM18.21 35.345c-4.118 0-7.473-3.32-7.473-7.394 0-4.075 3.355-7.395 7.473-7.395 4.119 0 7.474 3.32 7.474 7.395 0 4.074-3.355 7.394-7.474 7.394z"/>
    </g>
</svg>
