<svg xmlns="http://www.w3.org/2000/svg" width="52" height="53" viewBox="0 0 52 53">
    <g fill="none" fill-rule="evenodd">
        <path fill="#725DFF" fill-rule="nonzero" d="M16.68 47.36h16.96c1.17 0 2.12.95 2.12 2.12 0 1.17-.95 2.12-2.12 2.12H16.68c-1.17 0-2.12-.95-2.12-2.12 0-1.17.95-2.12 2.12-2.12m8.48-11.66c-5.853 0-10.6-4.746-10.6-10.6V11.32c0-5.854 4.747-10.6 10.6-10.6s10.6 4.746 10.6 10.6V25.1c0 5.854-4.747 10.6-10.6 10.6m0 8.48c-10.537 0-19.08-8.543-19.08-19.08 0-1.17.95-2.12 2.12-2.12 1.17 0 2.12.95 2.12 2.12 0 8.196 6.644 14.84 14.84 14.84s14.841-6.644 14.841-14.84H40c0-1.17.95-2.12 2.12-2.12 1.17 0 2.12.95 2.12 2.12 0 10.537-8.543 19.08-19.08 19.08" transform="translate(.6 .38)"/>
    </g>
</svg>
