<svg xmlns="http://www.w3.org/2000/svg" width="63" height="63" viewBox="0 0 63 63">
    <g fill="none" fill-rule="evenodd">
        <g fill="#473F81" fill-rule="nonzero">
            <path d="M37.417.184c-.632-.316-1.335-.21-1.861.21L20 12.795 38.4 31.2V1.764c0-.667-.386-1.3-.983-1.58zM48.29 45.823L2.974.51C2.294-.17 1.19-.17.51.51c-.68.68-.68 1.784 0 2.464l10.966 10.97h-1.021c-1.08 0-2.022.487-2.65 1.254-.522.593-.836 1.395-.836 2.231v13.943c0 1.917 1.569 3.485 3.486 3.485h8.087l16.976 13.56c.314.244.697.383 1.08.383.245 0 .524-.07.768-.174.592-.28.976-.907.976-1.569v-6.25l7.48 7.48c.342.342.788.513 1.234.513.446 0 .893-.17 1.234-.509.68-.683.68-1.785 0-2.468z" transform="translate(7 12)"/>
        </g>
    </g>
</svg>
