<svg xmlns="http://www.w3.org/2000/svg" width="47" height="46" viewBox="0 0 47 46">
    <g fill="none" fill-rule="evenodd">
        <g fill="#FFF" fill-rule="nonzero">
            <path d="M28.649 0h-9.965v3.697h7.326l-8.307 8.211c-1.83-1.286-4.071-2.049-6.493-2.049C5.021 9.86 0 14.827 0 20.951c0 6.123 5.021 11.091 11.21 11.091 6.19 0 11.21-4.968 11.21-11.091 0-2.396-.77-4.614-2.07-6.424l8.299-8.219v7.248h3.737V0h-3.737zM11.21 28.345c-4.118 0-7.473-3.32-7.473-7.394 0-4.075 3.355-7.395 7.473-7.395 4.119 0 7.474 3.32 7.474 7.395 0 4.074-3.355 7.394-7.474 7.394z" transform="translate(7 1)"/>
            <path d="M22.062 21.062c0-6.225-4.888-11.276-10.913-11.276S.236 14.836.236 21.062c0 5.59 3.933 10.226 9.094 11.12v3.914H3.874v3.759H9.33v5.011h3.638v-5.011h5.457v-3.759h-5.457v-3.915c5.161-.893 9.094-5.528 9.094-11.12zm-18.188 0c0-4.142 3.266-7.517 7.275-7.517 4.01 0 7.276 3.375 7.276 7.517s-3.267 7.517-7.276 7.517-7.275-3.375-7.275-7.517z" transform="translate(7 1)"/>
        </g>
    </g>
</svg>
