<svg xmlns="http://www.w3.org/2000/svg" width="47" height="46" viewBox="0 0 47 46">
    <g fill="none" fill-rule="evenodd">
        <g fill="#725DFF">
            <path d="M14 0v41.564l-10.359.006c-.357-4.993 1.267-9.276 4.872-12.85l.151-.153C3.546 26.18 0 20.987 0 14.967 0 7.02 6.182.515 14 0zM17.506 0c8.284 0 11.441 6.716 11.441 15 0 .377-.007.75-.021 1.12.397 1.287.994 3.274 1.834 3.88 1.166.84 2.68.92 3.109 2.173.485 1.42-2.294 3.58-6.689 5.105-.107.037-.25.056-.416.055.862 2.104 1.355 4.54 1.413 7.144l.006.523v6.592L17 41.597 16.999.009c.167-.006.336-.009.507-.009z" transform="translate(7 2)"/>
        </g>
    </g>
</svg>
