<svg xmlns="http://www.w3.org/2000/svg" width="78" height="78" viewBox="0 0 78 78">
    <g fill="none" fill-rule="evenodd">
        <path fill="#725DFF" fill-rule="nonzero" d="M28.62 23.32c-2.927 0-5.3 2.372-5.3 5.3s2.373 5.3 5.3 5.3c2.927 0 5.3-2.372 5.3-5.3s-2.373-5.3-5.3-5.3m27.853 22.19l-11.45-5.724c-4.321-2.16-9.405-2.16-13.727 0L19.848 45.51c-.353.176-.767-.08-.767-.475V23.32c0-2.342 1.898-4.24 4.24-4.24H53c2.342 0 4.24 1.898 4.24 4.24v21.715c0 .394-.414.651-.767.475M53 14.84H23.32c-4.684 0-8.48 3.797-8.48 8.48V53c0 4.683 3.796 8.48 8.48 8.48H53c4.683 0 8.48-3.797 8.48-8.48V23.32c0-4.683-3.797-8.48-8.48-8.48" transform="translate(.26 .38)"/>
    </g>
</svg>
