<svg xmlns="http://www.w3.org/2000/svg" width="41" height="41" viewBox="0 0 41 41">
    <g fill="none" fill-rule="evenodd">
        <g fill="#FFF" fill-rule="nonzero">
            <path d="M19.166 20.395L26.978 28.206 29.291 28.206 29.291 25.893 21.48 18.081zM26.398 11.017c-.678-.889-1.401-1.33-2.17-1.326-.767.005-1.57.457-2.408 1.356C12.904 3.682 7.778 0 6.441 0 4.436 0 0 4.84 0 6.428c0 1.058 4.034 5.83 12.103 14.317-.905.843-1.36 1.642-1.365 2.399-.005.756.44 1.48 1.334 2.17l14.326-14.297z" transform="matrix(-1 0 0 1 35.129 6.2)"/>
        </g>
    </g>
</svg>
