<svg xmlns="http://www.w3.org/2000/svg" width="78" height="78" viewBox="0 0 78 78">
    <g fill="none" fill-rule="evenodd">
        <g fill="#FFF" fill-rule="nonzero">
            <path d="M37.1 39.479L52.221 54.6 56.7 54.6 56.7 50.121 41.579 35zM51.1 21.325c-1.313-1.72-2.713-2.575-4.2-2.565-1.487.01-3.04.885-4.661 2.624C24.979 7.128 15.056 0 12.469 0 8.586 0 0 9.368 0 12.442c0 2.05 7.81 11.288 23.427 27.715-1.75 1.631-2.631 3.179-2.641 4.643-.01 1.464.851 2.864 2.582 4.2L51.1 21.325z" transform="matrix(-1 0 0 1 68 12)"/>
        </g>
    </g>
</svg>
