<svg xmlns="http://www.w3.org/2000/svg" width="44" height="46" viewBox="0 0 44 46">
    <g fill="none" fill-rule="evenodd">
        <path fill="#FFF" d="M22.168 4c1.882 0 3.407 1.525 3.407 3.407l-.001 11.354H36.93c1.881 0 3.406 1.526 3.406 3.407 0 1.882-1.525 3.407-3.406 3.407l-11.356-.001V36.93c0 1.881-1.524 3.406-3.406 3.406-1.881 0-3.406-1.525-3.406-3.406l-.001-11.356H7.407C5.525 25.575 4 24.05 4 22.169c0-1.881 1.525-3.406 3.407-3.406l11.354-.001V7.407C18.762 5.525 20.288 4 22.169 4z" transform="translate(0 1.173)"/>
    </g>
</svg>
