<svg xmlns="http://www.w3.org/2000/svg" width="75" height="75" viewBox="0 0 75 75">
    <g fill="none" fill-rule="evenodd">
        <path fill="#FFF" fill-rule="nonzero" d="M38.45 30.626h5.638v-8.25c0-.569.358-1.077.902-1.281.538-.209 1.158-.066 1.55.357l14.094 15.124c.488.525.488 1.325 0 1.85L46.54 53.55c-.273.289-.654.448-1.043.448-.172 0-.344-.03-.507-.09-.544-.207-.902-.716-.902-1.285v-8.249h-2.96c-8.62 0-16.724 3.275-22.82 9.223-.407.396-1.016.511-1.537.297-.527-.212-.871-.715-.871-1.27 0-12.13 10.117-21.998 22.55-21.998z"/>
    </g>
</svg>
