<svg xmlns="http://www.w3.org/2000/svg" width="142" height="142" viewBox="0 0 142 142">
    <g fill="none" fill-rule="evenodd">
        <circle cx="71" cy="71" r="71" fill="#100A39" fill-opacity=".69"/>
        <path fill="#FFF" fill-rule="nonzero" d="M89.392 52.615C84.486 47.705 77.962 45 71.024 45c-6.254 0-12.204 2.215-16.913 6.266l-5.038-4.95-1.01 17.114 17.399-1.286-4.937-4.573c2.988-2.347 6.66-3.623 10.499-3.623 9.394 0 17.036 7.65 17.036 17.052s-7.642 17.052-17.036 17.052c-4.313 0-8.428-1.616-11.586-4.551-3.142-2.92-5.058-6.875-5.394-11.136l-.111-1.403H45l.096 1.614C45.916 86.272 57.304 97 71.024 97c6.938 0 13.462-2.704 18.368-7.615C94.298 84.475 97 77.945 97 71c0-6.945-2.702-13.474-7.608-18.385z"/>
    </g>
</svg>
