<svg xmlns="http://www.w3.org/2000/svg" width="142" height="142" viewBox="0 0 142 142">
    <g fill="none" fill-rule="evenodd">
        <g>
            <g transform="translate(-333 -4364) translate(333 4364)">
                <circle cx="71" cy="71" r="71" fill="#100A39" fill-opacity=".69"/>
                <g fill="#FFF" fill-rule="nonzero">
                    <path d="M44.392 7.615C39.486 2.705 32.962 0 26.024 0 19.77 0 13.82 2.215 9.11 6.266l-5.038-4.95-1.01 17.114 17.399-1.286-4.937-4.573c2.988-2.347 6.66-3.623 10.499-3.623 9.394 0 17.036 7.65 17.036 17.052s-7.642 17.052-17.036 17.052c-4.313 0-8.428-1.616-11.586-4.551-3.142-2.92-5.058-6.875-5.394-11.136l-.111-1.403H0l.096 1.614C.916 41.272 12.304 52 26.024 52c6.938 0 13.462-2.704 18.368-7.615C49.298 39.475 52 32.945 52 26c0-6.945-2.702-13.474-7.608-18.385z" transform="translate(45 45)"/>
                </g>
            </g>
        </g>
    </g>
</svg>
