<svg xmlns="http://www.w3.org/2000/svg" xmlns:xlink="http://www.w3.org/1999/xlink" width="48" height="48" viewBox="0 0 48 48">
    <defs>
        <path id="6gd3tbpvva" d="M5.35 45.19c-2.595 1.298-5.295-1.485-4.027-4.024 0 0 4.773-9.639 6.086-12.164 1.313-2.525 2.816-2.962 16.773-4.765.516-.067.94-.457.94-.977s-.424-.91-.94-.977c-13.957-1.804-15.46-2.24-16.773-4.765C6.096 14.994 1.323 5.354 1.323 5.354.055 2.816 2.755.032 5.35 1.329L43.86 20.577c2.212 1.104 2.212 4.262 0 5.367L5.35 45.19z"/>
    </defs>
    <g fill="none" fill-rule="evenodd" transform="translate(.56 .86)">
        <use fill="#FFF" fill-rule="nonzero" transform="rotate(-180 23.26 23.26)" xlink:href="#6gd3tbpvva"/>
    </g>
</svg>
