<?xml version="1.0" encoding="UTF-8"?>
<svg width="112px" height="112px" viewBox="0 0 112 112" version="1.1" xmlns="http://www.w3.org/2000/svg" xmlns:xlink="http://www.w3.org/1999/xlink">
    <title>Smile</title>
    <defs>
        <path d="M38.1954375,0.6111875 C31.4345625,0.6111875 25.084125,2.369125 19.575875,5.4505 L19.575875,5.4505 C16.487625,7.1768125 13.6626875,9.3218125 11.180125,11.807125 L11.180125,11.807125 C10.07875,12.9078125 9.043375,14.07725 8.083625,15.307875 L8.083625,15.307875 C6.8371875,16.900125 5.715875,18.5961875 4.7320625,20.3781875 L4.7320625,20.3781875 C3.39075,22.8085 2.3065625,25.3996875 1.5159375,28.117375 L1.5159375,28.117375 C0.529375,31.5095 0,35.0955 0,38.806625 L0,38.806625 C0,42.1348125 0.4269375,45.3646875 1.2258125,48.44125 L1.2258125,48.44125 C2.5513125,53.5404375 4.9039375,58.2250625 8.0485625,62.2620625 L8.0485625,62.2620625 C8.696875,63.09325 9.3775,63.89625 10.091125,64.6696875 L10.091125,64.6696875 C10.445875,65.0560625 10.8095625,65.434875 11.180125,65.8054375 L11.180125,65.8054375 C13.6626875,68.29075 16.487625,70.4350625 19.575875,72.1620625 L19.575875,72.1620625 C25.084125,75.2434375 31.4345625,77 38.1954375,77 L38.1954375,77 C40.79075,77 43.324875,76.7408125 45.775125,76.247875 L45.775125,76.247875 C48.6784375,75.6641875 51.4600625,74.7511875 54.08425,73.5494375 L54.08425,73.5494375 C58.2498125,71.6409375 62.013875,69.0050625 65.21075,65.8054375 L65.21075,65.8054375 C65.5813125,65.434875 65.945,65.0560625 66.29975,64.6696875 L66.29975,64.6696875 C67.0126875,63.89625 67.6933125,63.09325 68.34025,62.2620625 L68.34025,62.2620625 C71.4869375,58.2250625 73.838875,53.5404375 75.164375,48.44125 L75.164375,48.44125 C75.964625,45.3646875 76.3888125,42.1348125 76.3888125,38.806625 L76.3888125,38.806625 C76.3888125,35.0955 75.860125,31.5095 74.87425,28.117375 L74.87425,28.117375 C74.083625,25.3996875 72.9980625,22.8085 71.65675,20.3781875 L71.65675,20.3781875 C70.6743125,18.5961875 69.553,16.900125 68.3065625,15.307875 L68.3065625,15.307875 C67.3468125,14.07725 66.3114375,12.9078125 65.21075,11.807125 L65.21075,11.807125 C62.013875,8.606125 58.2498125,5.9709375 54.08425,4.063125 L54.08425,4.063125 C51.4600625,2.861375 48.6784375,1.948375 45.775125,1.364 L45.775125,1.364 C43.324875,0.870375 40.79075,0.6111875 38.1954375,0.6111875 Z" id="path-1"></path>
        <radialGradient cx="50%" cy="46.7907852%" fx="50%" fy="46.7907852%" r="100%" id="radialGradient-3">
            <stop stop-color="#FFFA79" offset="0%"></stop>
            <stop stop-color="#FF9800" offset="80.8986003%"></stop>
            <stop stop-color="#E47700" offset="100%"></stop>
        </radialGradient>
        <radialGradient cx="50%" cy="46.7907852%" fx="50%" fy="46.7907852%" r="50%" id="radialGradient-4">
            <stop stop-color="#FFE570" offset="0%"></stop>
            <stop stop-color="#FFA436" stop-opacity="0.3" offset="100%"></stop>
        </radialGradient>
        <linearGradient x1="50%" y1="104.924129%" x2="50%" y2="0%" id="linearGradient-5">
            <stop stop-color="#FFC549" offset="0%"></stop>
            <stop stop-color="#FFE2A8" offset="100%"></stop>
        </linearGradient>
        <linearGradient x1="50%" y1="0%" x2="50%" y2="100%" id="linearGradient-6">
            <stop stop-color="#281300" offset="0%"></stop>
            <stop stop-color="#733A01" offset="100%"></stop>
        </linearGradient>
        <linearGradient x1="50%" y1="0%" x2="50%" y2="100%" id="linearGradient-7">
            <stop stop-color="#703801" offset="0%"></stop>
            <stop stop-color="#271300" offset="100%"></stop>
        </linearGradient>
    </defs>
    <g id="Icon-App" stroke="none" stroke-width="1" fill="none" fill-rule="evenodd">
        <g id="Smile">
            <g id="Group-21" transform="translate(17.000000, 18.000000)">
                <g id="Group-3">
                    <mask id="mask-2" fill="white">
                        <use xlink:href="#path-1"></use>
                    </mask>
                    <g id="Clip-2"></g>
                    <path d="M38.1954375,0.6111875 C31.4345625,0.6111875 25.084125,2.369125 19.575875,5.4505 C16.487625,7.1768125 13.6626875,9.3218125 11.180125,11.807125 C10.07875,12.9078125 9.043375,14.07725 8.083625,15.307875 C6.8371875,16.900125 5.715875,18.5961875 4.7320625,20.3781875 C3.39075,22.8085 2.3065625,25.3996875 1.5159375,28.117375 C0.529375,31.5095 0,35.0955 0,38.806625 C0,42.1348125 0.4269375,45.3646875 1.2258125,48.44125 C2.5513125,53.5404375 4.9039375,58.2250625 8.0485625,62.2620625 C8.696875,63.09325 9.3775,63.89625 10.091125,64.6696875 C10.445875,65.0560625 10.8095625,65.434875 11.180125,65.8054375 C13.6626875,68.29075 16.487625,70.4350625 19.575875,72.1620625 C25.084125,75.2434375 31.4345625,77 38.1954375,77 C40.79075,77 43.324875,76.7408125 45.775125,76.247875 C48.6784375,75.6641875 51.4600625,74.7511875 54.08425,73.5494375 C58.2498125,71.6409375 62.013875,69.0050625 65.21075,65.8054375 C65.5813125,65.434875 65.945,65.0560625 66.29975,64.6696875 C67.0126875,63.89625 67.6933125,63.09325 68.34025,62.2620625 C71.4869375,58.2250625 73.838875,53.5404375 75.164375,48.44125 C75.964625,45.3646875 76.3888125,42.1348125 76.3888125,38.806625 C76.3888125,35.0955 75.860125,31.5095 74.87425,28.117375 C74.083625,25.3996875 72.9980625,22.8085 71.65675,20.3781875 C70.6743125,18.5961875 69.553,16.900125 68.3065625,15.307875 C67.3468125,14.07725 66.3114375,12.9078125 65.21075,11.807125 C62.013875,8.606125 58.2498125,5.9709375 54.08425,4.063125 C51.4600625,2.861375 48.6784375,1.948375 45.775125,1.364 C43.324875,0.870375 40.79075,0.6111875 38.1954375,0.6111875 Z" id="Fill-1" fill="url(#radialGradient-3)" mask="url(#mask-2)"></path>
                    <path d="M38.1954375,0.6875 C31.4345625,0.6875 25.084125,2.4454375 19.575875,5.5268125 C16.487625,7.253125 13.6626875,9.398125 11.180125,11.8834375 C10.07875,12.984125 9.043375,14.1535625 8.083625,15.3841875 C6.8371875,16.9764375 5.715875,18.6725 4.7320625,20.4545 C3.39075,22.8848125 2.3065625,25.476 1.5159375,28.1936875 C0.529375,31.5858125 0,35.1718125 0,38.8829375 C0,42.211125 0.4269375,45.441 1.2258125,48.5175625 C2.5513125,53.61675 4.9039375,58.301375 8.0485625,62.338375 C8.696875,63.1695625 9.3775,63.9725625 10.091125,64.746 C10.445875,65.132375 10.8095625,65.5111875 11.180125,65.88175 C13.6626875,68.3670625 16.487625,70.511375 19.575875,72.238375 C25.084125,75.31975 31.4345625,77.0763125 38.1954375,77.0763125 C40.79075,77.0763125 43.324875,76.817125 45.775125,76.3241875 C48.6784375,75.7405 51.4600625,74.8275 54.08425,73.62575 C58.2498125,71.71725 62.013875,69.081375 65.21075,65.88175 C65.5813125,65.5111875 65.945,65.132375 66.29975,64.746 C67.0126875,63.9725625 67.6933125,63.1695625 68.34025,62.338375 C71.4869375,58.301375 73.838875,53.61675 75.164375,48.5175625 C75.964625,45.441 76.3888125,42.211125 76.3888125,38.8829375 C76.3888125,35.1718125 75.860125,31.5858125 74.87425,28.1936875 C74.083625,25.476 72.9980625,22.8848125 71.65675,20.4545 C70.6743125,18.6725 69.553,16.9764375 68.3065625,15.3841875 C67.3468125,14.1535625 66.3114375,12.984125 65.21075,11.8834375 C62.013875,8.6824375 58.2498125,6.04725 54.08425,4.1394375 C51.4600625,2.9376875 48.6784375,2.0246875 45.775125,1.4403125 C43.324875,0.9466875 40.79075,0.6875 38.1954375,0.6875 Z" id="Fill-1" fill="url(#radialGradient-4)" mask="url(#mask-2)"></path>
                    <path d="M38.5,21.3125 C49.890873,21.3125 60.5,17.1571428 60.5,12.03125 C60.5,6.90535717 49.890873,2.75 38.5,2.75 C27.109127,2.75 16.5,6.90535717 16.5,12.03125 C16.5,17.1571428 27.109127,21.3125 38.5,21.3125 Z" id="Oval-Copy-9" fill-opacity="0.49" fill="url(#linearGradient-5)" mask="url(#mask-2)"></path>
                </g>
                <path d="M24.4440625,31.846375 C27.3054375,31.846375 29.8835625,32.77725 31.702,34.2670625 C31.2723125,28.97125 28.1875,25.4375 24.4440625,25.4375 C20.702,25.4375 17.6171875,28.97125 17.1875,34.2670625 C19.0073125,32.77725 21.5840625,31.846375 24.4440625,31.846375" id="Fill-10" fill="url(#linearGradient-6)"></path>
                <path d="M51.6580625,31.846375 C54.5194375,31.846375 57.0961875,32.77725 58.914625,34.2670625 C58.4863125,28.97125 55.4015,25.4375 51.6580625,25.4375 C47.916,25.4375 44.8311875,28.97125 44.400125,34.2670625 C46.2199375,32.77725 48.7966875,31.846375 51.6580625,31.846375" id="Fill-12" fill="url(#linearGradient-6)"></path>
                <path d="M60.8437492,62.4247006 C60.4154367,62.8121068 59.7753742,62.8361693 59.3157805,62.4944818 C59.2219367,62.4247006 49.8784682,55.5163569 38.3814059,55.5163569 C26.9132185,55.5163569 17.5384687,62.4247006 17.4470312,62.4944818 C16.9874375,62.8361693 16.347375,62.8072943 15.9190625,62.4247006 C15.4931562,62.0397006 15.3969062,61.4044506 15.692875,60.9135756 C16.0032812,60.3962318 23.4337811,48.2976071 38.3814059,48.2976071 C53.3290306,48.2976071 60.7619367,60.3962318 61.0699367,60.9135756 C61.3659055,61.4068568 61.2720617,62.0397006 60.8437492,62.4247006" id="path34" fill="url(#linearGradient-7)" fill-rule="nonzero" transform="translate(38.381741, 55.515870) scale(-1, 1) rotate(-180.000000) translate(-38.381741, -55.515870) "></path>
            </g>
            <rect id="Rectangle-Copy-11" stroke="#979797" opacity="0" x="0" y="0" width="112" height="112"></rect>
        </g>
    </g>
</svg>