<svg xmlns="http://www.w3.org/2000/svg" width="113" height="113" viewBox="0 0 113 113">
    <defs>
        <linearGradient id="prefix__a" x1="123.448%" x2="-68.486%" y1="153.372%" y2="-83.066%">
            <stop offset="0%" stop-color="#52296E"/>
            <stop offset="100%" stop-color="#0A0D37"/>
        </linearGradient>
    </defs>
    <g fill="none" fill-rule="evenodd">
        <path fill="url(#prefix__a)" fill-rule="nonzero" d="M78.531 51.802c2.57 0 4.922.418 7.05 1.256 2.128.838 3.93 1.957 5.407 3.36 1.475 1.403 2.782 3.1 3.92 5.087 1.137 1.99 2.044 4.03 2.718 6.124.675 2.093 1.234 4.365 1.677 6.814.44 2.45.736 4.73.885 6.846.146 2.115.22 4.282.22 6.501 0 5.024-1.539 8.992-4.616 11.9-3.078 2.91-7.167 4.365-12.267 4.365H28.263c-5.1 0-9.189-1.456-12.267-4.364-3.077-2.91-4.615-6.877-4.615-11.9 0-2.22.074-4.387.221-6.502.148-2.115.443-4.396.886-6.846s1-4.721 1.675-6.814c.675-2.095 1.58-4.135 2.719-6.124 1.139-1.987 2.444-3.685 3.92-5.087 1.476-1.403 3.278-2.522 5.406-3.36 2.13-.838 4.48-1.256 7.05-1.256.422 0 1.328.45 2.72 1.35 1.39.9 2.928 1.907 4.615 3.015 1.686 1.108 3.94 2.114 6.766 3.014 2.824.9 5.67 1.35 8.536 1.35 2.865 0 5.71-.45 8.536-1.35 2.826-.9 5.079-1.906 6.765-3.014 1.687-1.108 3.224-2.115 4.616-3.014 1.391-.9 2.297-1.351 2.72-1.351zM55.894 7.587c6.703 0 12.425 2.356 17.167 7.066 4.74 4.71 7.112 10.394 7.112 17.052 0 6.657-2.371 12.34-7.112 17.053-4.742 4.708-10.464 7.064-17.167 7.064-6.703 0-12.425-2.356-17.167-7.064-4.742-4.712-7.113-10.395-7.113-17.053 0-6.658 2.371-12.342 7.113-17.052 4.742-4.71 10.464-7.066 17.167-7.066z" transform="translate(.295 .295)"/>
    </g>
</svg>
