<svg xmlns="http://www.w3.org/2000/svg" xmlns:xlink="http://www.w3.org/1999/xlink" width="981" height="379" viewBox="0 0 981 379">
    <defs>
        <path id="prefix__a" d="M0.709 0.128L14.509 0.128 14.509 14 0.709 14z"/>
    </defs>
    <g fill="none" fill-rule="evenodd">
        <path fill="#FFF" fill-rule="nonzero" d="M370.402 363.5c.408 0 .612-.272.612-.544V324.4h9.044c.408 0 .68-.204.68-.476v-7.072c0-.272-.272-.544-.68-.544h-26.996c-.408 0-.68.272-.68.544v7.072c0 .272.272.476.68.476h9.044v38.556c0 .272.204.544.612.544h7.684zm38.284.612c15.572 0 23.46-12.308 23.46-24.48s-7.888-24.412-23.46-24.412c-15.844 0-23.596 12.24-23.596 24.412 0 12.172 7.752 24.48 23.596 24.48zm0-8.568c-9.588 0-14.348-7.888-14.348-15.776 0-7.956 4.76-15.912 14.348-15.912 9.452 0 14.28 7.956 14.28 15.912 0 7.888-4.828 15.776-14.28 15.776zm64.192 7.956c.408 0 .68-.272.68-.544v-46.512c0-.272-.272-.544-.68-.544h-7.684c-.408 0-.68.272-.68.544v46.512c0 .272.272.544.68.544h7.684zm32.912.68c6.596 0 12.512-2.652 16.728-6.868.272-.204.272-.612 0-.816l-5.372-5.44c-.272-.204-.68-.204-.952 0-2.72 2.72-6.392 4.352-10.404 4.352-8.092 0-14.62-5.916-14.62-15.504 0-8.976 5.508-15.98 14.62-15.98 4.012 0 7.684 1.7 10.404 4.352.272.204.68.204.952 0l5.372-5.372c.272-.204.272-.612 0-.816-4.216-4.284-10.132-6.868-16.728-6.868-13.94 0-23.8 10.472-23.8 24.684 0 14.824 10.744 24.276 23.8 24.276zm46.784-.068c15.572 0 23.46-12.308 23.46-24.48s-7.888-24.412-23.46-24.412c-15.844 0-23.596 12.24-23.596 24.412 0 12.172 7.752 24.48 23.596 24.48zm0-8.568c-9.588 0-14.348-7.888-14.348-15.776 0-7.956 4.76-15.912 14.348-15.912 9.452 0 14.28 7.956 14.28 15.912 0 7.888-4.828 15.776-14.28 15.776zm40.8 7.956c.34 0 .612-.272.612-.544v-31.348l21.76 31.688c.068.136.408.204.544.204h7.752c.408 0 .68-.272.68-.544v-46.58c0-.272-.272-.544-.68-.544h-7.616c-.408 0-.68.272-.68.544v31.62l-21.828-31.96c-.068-.136-.34-.204-.476-.204h-7.82c-.408 0-.612.272-.612.544v46.58c0 .272.204.544.612.544h7.752z" transform="translate(0 .5)"/>
        <path fill="#FFF" d="M230.231 26.371c3.459 38.358-27.009 220.444-61.099 213.327-27.422-5.726-12.519-63.828-3.975-88.909 3.612-10.603-17.47-27.2-25.484-12.98-6.582 11.676-43.708 127.408-65.131 124.322-36.177-5.211 39.608-194.693 59-221.962 6.395-8.992-17.21-5.165-23.597 1.245-57.23 57.431-128.325 242.364-54 255.736 30.062 5.409 57.027-53.236 65.008-85.363-1.8 23.404 3.813 54.805 31.293 56.15 45.371 2.219 101.762-134.752 117.385-212.428 4.887-24.297-40.46-40.91-39.4-29.138M314.302 115.176c-46.905-10.975-104.508 115.25-58.3 120.092 38.945 4.083 81.583-46.574 93.343-85.338-1.394 3.844 4.273-15.718 2.19-10.975-12.046 27.438-52.563 79.02-71.18 76.825-28.125-3.317 15.502-98.705 31.757-95.482 14.153 2.805-13.007 48.729-36.898 57.782-.514.195-.34 1.025-.406 1.334-.123.582-.134.765-.42 1.556-.221.616-.705 2.495-.705 2.584 41.123-4.146 71.086-61.249 40.62-68.378z" transform="translate(0 .5)"/>
        <path fill="#FFF" d="M417.343 33.962c-32.986 28.526-111.931 172.324-68.72 184.322 45.407 12.608 88.582-77.107 83.564-72.412-1.886 1.764-3.064-7.125-7.697 2.194-9.747 19.613-36.284 58.15-50.578 52.664-23.958-9.194 23.09-106.973 65.972-164.025 6.082-8.091-14.294-9.874-22.54-2.743" transform="translate(0 .5)"/>
        <path fill="#FFF" d="M485.415 119.527c-1.32 2.102 1.389 4.446 3.319 2.87 10.124-8.27 17.738-32.35-.225-34.743-36.424-4.85-104.53 106.171-57.53 118.614 31.512 8.343 67.879-26.683 91.021-74.843-1.754 2.364-1.331-2.803-3.306 0-15.428 21.89-37.709 56.905-62.815 55.822-25.346-1.095 10.427-88.63 30.25-89.52 9.002-.404 4.596 13.342-.714 21.8" transform="translate(0 .5)"/>
        <path fill="#FFF" d="M523.75 197.413c49.403 3.668 89.336-110.385 52.172-119.129-34.17-8.04-43.354 48.237-14.696 54.815 16.178 3.713 43.354-1.463 76.42-34.351-1.409.952 1.273-5.39 0-4.386-37.475 29.6-61.53 35.152-73.849 30.696-16.165-5.846-7.715-43.851 10.656-40.196 17.667 3.515-5.879 98.666-36.007 95.01-23.118-2.802 5.511-60.843 8.084-69.795 2.441-8.499 0-15.348-2.205-14.983-23.3 3.862-69.808 98.666-20.575 102.32z" transform="translate(0 .5)"/>
        <path fill="#FFF" d="M638.977 86.692c-16.54 27.725-64.103 107.825-27.413 104.72 1.226-.102 2.362-1.225 2.556-2.447 3.537-22.327 29.876-72.809 43.512-90.133 6.951-8.83-14.654-18.848-18.655-12.14" transform="translate(0 .5)"/>
        <path fill="#FFF" d="M612 188.68c1.46-36.289 60.593-95.67 81.4-106.666 3.682-1.947 20.44 1.466 14.235 13.196-9.922 18.755-40.777 75.67-37.232 93.47 1.643 8.247-17.521 2.2-18.98-9.164-.853-6.634 16.79-60.114 32.12-81.374-12.045 10.263-60.957 59.748-71.543 90.538" transform="translate(0 .5)"/>
        <path fill="#FFF" d="M667 191.056c4.396-36.234 61.55-108.703 85.73-106.507 23.716 2.153 4.769 21.925-9.16 65.148-15.94 49.466 3.053 56.436 15.636 61.92 1.515.66.993 2.941-.661 2.883-93.232-3.38-31.946-89.712-23.4-106.893-23.082 10.98-54.956 57.097-68.145 83.45" transform="translate(0 .5)"/>
        <path fill="#FFF" d="M789.106 143.502c37.164 3.026 66.036-50.12 42.524-57.945-39.573-13.17-106.71 101.01-43.97 103.89 31.878 1.464 53.859-27.56 58.26-46.823 1.37-5.995-15.39-14.267-16.488-1.098-.367 15.73-10.993 38.41-28.581 35.118-27.954-5.234-3.487-92.47 27.481-85.6 8.306 1.843-13.603 40.81-38.627 48.293-.415.124-.252 1.314-.183 2.19.064.802-.617 1.959-.416 1.975z" transform="translate(0 .5)"/>
        <path fill="#FFF" d="M790.831 140.163L788.624 137.5 788.074 143.695 791.076 143.311zM956.91 23.01c-22.731 18.51-73.084 138.267-73.904 160.286-.367 9.88 15.44 14.832 17.65 4.391 7.353-34.764 70.963-137.23 75.375-144.916 4.412-7.685-6.987-29.642-19.12-19.76M867.11 235.5c-5.05-7.65-3.82-17.434 2.748-21.853 6.567-4.419 15.984-1.799 21.033 5.854 5.049 7.65 3.819 17.433-2.748 21.852-6.568 4.419-15.984 1.799-21.034-5.852M261.202 255.754c17.052-4 249.947-62.951 416.078-32.607 2.568.469 2.137 4.307-.472 4.19-177.62-7.89-367.996 33.538-424.252 52.751-11.509 3.93-3.418-21.503 8.646-24.334" transform="translate(0 .5)"/>
        <path fill="#C9961A" d="M139 43.5c-3.683 8.569-7.308 17.152-10.78 25.8-3.532 8.622-6.986 17.273-10.411 25.932-3.388 8.675-6.794 17.34-10.046 26.062-3.282 8.71-6.517 17.437-9.584 26.22-3.13 8.761-6.104 17.574-8.934 26.429-2.856 8.848-5.491 17.76-7.904 26.728-2.365 8.978-4.514 18.021-5.96 27.181-.74 4.575-1.302 9.184-1.498 13.815-.14 4.623-.015 9.296 1.1 13.833-.734-2.216-1.19-4.518-1.516-6.837-.307-2.323-.402-4.665-.461-7.007-.052-4.683.267-9.365.766-14.02 1.075-9.303 2.898-18.497 5.062-27.59 4.34-18.193 10.043-36.01 16.223-53.625 6.262-17.592 13.056-34.984 20.368-52.155 7.3-17.172 15.014-34.18 23.575-50.766M36 295.765c1.907 1.75 3.92 3.354 6.021 4.803 2.134 1.404 4.354 2.645 6.664 3.655 2.324.978 4.72 1.728 7.159 2.217 2.453.408 4.923.624 7.387.488 4.904-.37 9.728-1.771 13.998-4.296 4.303-2.45 8.177-5.691 11.6-9.374 3.455-3.66 6.559-7.698 9.305-11.993 2.77-4.277 5.312-8.728 7.61-13.322 4.645-9.164 8.555-18.744 12.256-28.443-2.398 10.11-5.666 20.037-9.952 29.565-4.268 9.513-9.602 18.716-16.845 26.474-3.647 3.826-7.78 7.283-12.494 9.837-1.162.661-2.422 1.149-3.63 1.72l-1.898.674-.948.337-.974.257c-2.573.787-5.278 1.044-7.946 1.136-2.681.001-5.347-.323-7.93-.952-2.568-.703-5.042-1.663-7.386-2.864-2.308-1.273-4.497-2.726-6.515-4.383-1.995-1.69-3.825-3.546-5.482-5.536M171 154.5c-1.297 6.832-2.806 13.58-4.196 20.336-.662 3.384-1.383 6.749-1.973 10.135-.628 3.378-1.203 6.76-1.645 10.153-.495 3.384-.861 6.781-1.066 10.175-.244 3.391-.237 6.785.015 10.139.062.84.148 1.675.286 2.5.097.836.283 1.647.44 2.469.142.828.418 1.608.62 2.422.303.765.52 1.584.9 2.317.617 1.556 1.581 2.913 2.647 4.202l.873.908c.291.307.648.532.97.81.63.587 1.404.954 2.129 1.434-1.624-.554-3.236-1.33-4.598-2.492-1.332-1.165-2.553-2.54-3.44-4.107-1.87-3.105-2.793-6.648-3.357-10.151-1.08-7.062-.558-14.157.349-21.083.993-6.932 2.505-13.747 4.384-20.44 1.87-6.696 4.07-13.282 6.662-19.727M137 271.896c1.97 1.361 4.089 2.441 6.29 3.234 2.206.796 4.518 1.206 6.822 1.394 4.632.367 9.266-.432 13.67-1.836 4.407-1.421 8.609-3.49 12.554-5.965 3.959-2.456 7.701-5.283 11.206-8.394 3.55-3.06 6.86-6.412 9.981-9.938 3.153-3.498 6.125-7.173 8.945-10.973 5.666-7.584 10.68-15.674 15.532-23.918-3.615 8.855-8.058 17.416-13.421 25.412-5.344 8-11.563 15.498-18.857 21.912-7.308 6.318-15.694 11.794-25.217 14.339-1.188.306-2.376.602-3.592.792-1.2.253-2.431.35-3.651.472-2.45.118-4.92.139-7.342-.294-2.409-.44-4.793-1.073-6.979-2.158-2.188-1.064-4.192-2.448-5.941-4.08M234.186 194.5c-.218 6.389-.198 12.778.487 19.072.71 6.261 2.053 12.529 4.973 17.947 2.85 5.42 7.69 9.634 13.589 10.99 2.908.75 5.98.947 9.047.725 3.07-.208 6.135-.79 9.145-1.613 6.039-1.611 11.858-4.156 17.444-7.11 5.61-2.927 10.954-6.374 16.128-10.056 5.147-3.722 10.099-7.737 14.714-12.117 2.319-2.177 4.531-4.468 6.624-6.867 2.088-2.4 4.046-4.926 5.663-7.692-.656 1.459-1.419 2.876-2.242 4.259-.853 1.362-1.745 2.707-2.705 4-1.905 2.6-4.005 5.054-6.187 7.43-4.41 4.712-9.21 9.061-14.317 13.03-5.088 3.997-10.515 7.571-16.19 10.743-5.702 3.12-11.707 5.786-18.07 7.542-3.186.844-6.463 1.446-9.805 1.646-3.333.2-6.758.007-10.055-.928-1.656-.424-3.243-1.11-4.778-1.87-1.492-.844-2.961-1.755-4.226-2.913-1.312-1.101-2.431-2.392-3.471-3.724-.464-.704-.965-1.385-1.392-2.106-.395-.737-.855-1.443-1.194-2.203-1.463-2.993-2.469-6.148-3.137-9.34-.638-3.201-.983-6.427-1.163-9.648-.245-6.45.178-12.87 1.118-19.197" transform="translate(0 .5)"/>
        <path fill="#C9961A" d="M282.594 209.5c-1.7-1.234-3.352-2.618-4.582-4.409-1.243-1.766-1.997-3.952-2.01-6.177-.037-2.225.54-4.415 1.41-6.413.878-2.006 2.024-3.857 3.238-5.62.22-.32.596-.469.956-.417l.083.012c2.237.322 4.534.242 6.79-.155 2.26-.415 4.476-1.118 6.622-2.007 4.305-1.755 8.347-4.21 12.109-7.016 3.787-2.781 7.314-5.935 10.547-9.36 3.239-3.415 6.252-7.058 8.85-10.973 2.583-3.916 4.902-8.022 6.534-12.39 1.615-4.35 2.693-8.948 2.434-13.536-.126-2.28-.526-4.56-1.384-6.688-.845-2.127-2.062-4.116-3.579-5.882-3.06-3.538-7.239-6.067-11.645-7.969 4.592 1.367 9.124 3.517 12.653 7.031 3.577 3.45 5.788 8.334 6.25 13.329.478 5.008-.396 10.03-2.02 14.686-1.632 4.666-3.876 9.083-6.575 13.176-5.378 8.202-12.249 15.373-20.206 21.124-4.01 2.824-8.31 5.305-12.966 7.045-4.633 1.676-9.766 2.71-14.808 1.634l1.039-.407c-1.274 1.628-2.455 3.307-3.377 5.109-.92 1.793-1.604 3.714-1.723 5.708-.128 1.984.34 4.016 1.358 5.8 1.016 1.788 2.438 3.35 4.002 4.765M447 38.5c-7.607 12.708-14.95 25.52-22.214 38.373-3.588 6.452-7.229 12.868-10.72 19.365-3.533 6.474-7.032 12.963-10.389 19.52-3.425 6.524-6.717 13.111-9.886 19.75-3.211 6.62-6.196 13.337-9.008 20.114-1.394 3.392-2.679 6.825-3.887 10.279-1.201 3.454-2.287 6.95-3.107 10.497-.83 3.537-1.45 7.147-1.361 10.754.058 1.794.312 3.595.99 5.256.652 1.663 1.824 3.162 3.445 4.092-1.717-.724-3.144-2.128-4.046-3.807-.904-1.687-1.357-3.57-1.608-5.446-.464-3.775-.084-7.556.455-11.262 1.222-7.405 3.407-14.57 5.904-21.582 2.469-7.028 5.418-13.86 8.435-20.644 3.086-6.757 6.375-13.412 9.759-20.013 3.456-6.563 6.988-13.084 10.664-19.52 3.72-6.414 7.455-12.815 11.407-19.085C429.68 62.574 437.878 50.196 447 38.5M278 59.5c-.197 4.26-.972 8.456-1.664 12.652l-1.23 6.259c-.437 2.078-.906 4.152-1.377 6.224-1.889 8.29-4.155 16.481-6.583 24.627-2.5 8.124-5.148 16.209-8.247 24.141-3.1 7.918-6.466 15.804-10.899 23.097 3.181-7.89 5.817-15.912 8.446-23.952.625-2.02 1.26-4.038 1.925-6.043l1.877-6.06c1.25-4.04 2.525-8.071 3.708-12.133 1.268-4.035 2.44-8.1 3.658-12.152l3.607-12.17c2.336-8.139 4.826-16.225 6.779-24.49M335 215.018c1.17 1.44 2.52 2.682 3.952 3.795 1.467 1.073 3.006 2.025 4.633 2.81 3.235 1.599 6.727 2.608 10.252 3.243 3.538.596 7.141.78 10.709.507 3.568-.244 7.11-.875 10.529-1.923 6.883-1.987 13.248-5.568 18.895-10.066 5.68-4.498 10.535-10.012 15.03-15.884-3.32 6.589-7.74 12.76-13.342 17.827-2.773 2.558-5.86 4.794-9.13 6.742-3.305 1.894-6.84 3.408-10.502 4.525-7.34 2.146-15.266 2.587-22.714.772-3.714-.898-7.308-2.323-10.525-4.348-1.594-1.037-3.098-2.202-4.44-3.526-1.317-1.35-2.469-2.845-3.347-4.474M483 103.5c-2.03 3.344-3.784 6.82-5.507 10.312-1.734 3.485-3.377 7.014-5.005 10.545-1.59 3.55-3.212 7.082-4.703 10.67-1.523 3.572-3.012 7.158-4.371 10.788-1.41 3.609-2.713 7.258-3.861 10.941-1.188 3.67-2.169 7.402-2.831 11.149-.322 1.874-.498 3.76-.464 5.606.011.924.107 1.834.313 2.696.198.864.518 1.681 1.017 2.345.954 1.375 2.747 1.98 4.603 1.925 1.861-.01 3.761-.477 5.608-1.054-1.72.897-3.538 1.683-5.54 1.968-.993.171-2.048.147-3.089-.117-1.039-.26-2.048-.848-2.804-1.678-.767-.827-1.253-1.84-1.589-2.85-.342-1.016-.541-2.053-.648-3.082-.227-2.062-.125-4.102.075-6.105.9-8.016 3.431-15.563 6.176-22.94 2.86-7.343 6.136-14.496 9.845-21.413 1.84-3.467 3.808-6.863 5.885-10.19 2.12-3.292 4.277-6.596 6.89-9.516M420 208.186c1.272 1.29 2.832 2.198 4.423 2.96 1.598.758 3.266 1.362 4.98 1.803 3.407.944 6.927 1.43 10.45 1.62 3.525.155 7.06.09 10.557-.334 3.498-.388 6.965-1.036 10.343-2.003 3.393-.912 6.686-2.167 9.857-3.665 3.19-1.468 6.219-3.265 9.13-5.25 2.868-2.043 5.594-4.306 8.143-6.783 2.56-2.475 4.844-5.221 7.117-8.034-1.651 3.202-3.625 6.266-5.91 9.113-2.333 2.805-4.923 5.426-7.79 7.746-2.862 2.328-6.024 4.28-9.304 5.994-3.307 1.67-6.779 3.02-10.348 4.036-7.157 1.943-14.672 2.616-22.024 1.72-3.673-.423-7.302-1.29-10.742-2.643-1.713-.688-3.384-1.503-4.914-2.535-1.528-1.015-2.964-2.231-3.968-3.745M547 124.5c-1.1 4.594-2.403 9.073-3.663 13.55-1.242 4.48-2.52 8.929-3.572 13.41-1.04 4.468-2.036 8.976-2.212 13.44-.07 2.217.077 4.455.99 6.317.465.912 1.177 1.667 2.094 2.196l.721.356.785.227c.528.193 1.093.178 1.66.297-1.108.198-2.308.355-3.49-.024-1.179-.334-2.27-1.123-3.076-2.148-.77-1.055-1.241-2.262-1.61-3.476-.308-1.217-.491-2.46-.568-3.686-.288-4.921.518-9.69 1.606-14.302.588-2.299 1.217-4.578 1.935-6.824.75-2.234 1.505-4.462 2.392-6.637 1.722-4.366 3.683-8.624 6.008-12.696" transform="translate(0 .5)"/>
        <path fill="#C9961A" d="M510 198.153c9.318 4.416 19.793 6.17 29.682 4.488 9.9-1.717 18.86-6.99 25.893-14.125 3.574-3.528 6.734-7.482 9.623-11.637 2.82-4.206 5.44-8.566 7.755-13.11 4.708-9.049 8.508-18.593 12.047-28.269-2.217 10.06-5.366 19.96-9.723 29.395l-1.65 3.532c-.589 1.16-1.228 2.295-1.842 3.445-.608 1.15-1.234 2.294-1.935 3.397l-2.044 3.343c-2.907 4.352-6.175 8.491-9.897 12.24-3.757 3.702-7.99 7-12.707 9.49-4.718 2.455-9.854 4.209-15.144 4.835-10.579 1.304-21.396-1.4-30.058-7.024M590 77.5c2.85 2.055 5.272 4.72 7.074 7.757 1.825 3.03 2.972 6.432 3.539 9.888.531 3.466.502 6.982-.004 10.403-.49 3.425-1.4 6.768-2.712 9.952.4-3.407.808-6.76.96-10.105.137-3.34.064-6.67-.473-9.922-.492-3.258-1.46-6.43-2.87-9.443-1.418-3.012-3.319-5.833-5.514-8.53M576 88.5c-2.762 1.926-5.317 3.93-7.392 6.28-2.041 2.37-3.53 5.072-4.113 7.974-.606 2.9-.274 5.967.716 8.95 1.004 2.989 2.604 5.837 4.285 8.796-2.677-2.03-5.025-4.623-6.621-7.788-1.625-3.126-2.334-6.974-1.562-10.633.74-3.662 2.857-6.899 5.54-9.152 2.687-2.275 5.862-3.763 9.147-4.427M594 190.007c4.127 2.64 8.29 5.204 12.63 7.353 2.163 1.075 4.366 2.071 6.613 2.79 1.123.35 2.251.653 3.356.802 1.087.139 2.214.152 2.975-.2.775-.318 1.146-.898 1.332-1.817.016-.244.086-.455.077-.72l.033-.857c.014-.738.126-1.397.234-2.059.513-2.583 1.354-4.938 2.238-7.279 1.823-4.649 4.013-9.082 6.285-13.466 2.339-4.346 4.789-8.625 7.386-12.811 2.638-4.16 5.33-8.287 8.24-12.261 2.872-3.999 5.926-7.869 9.148-11.593 3.24-3.7 6.663-7.27 10.453-10.389-3.283 3.647-6.335 7.452-9.2 11.402-2.895 3.922-5.634 7.955-8.297 12.037-2.628 4.104-5.24 8.216-7.694 12.426-2.488 4.186-4.887 8.425-7.145 12.732-2.29 4.283-4.454 8.645-6.307 13.084-.918 2.21-1.791 4.472-2.299 6.687-.107.546-.215 1.094-.236 1.585-.027.204-.044.642-.07.98-.004.35-.111.734-.173 1.097-.2.738-.481 1.52-1.05 2.183-.535.664-1.29 1.187-2.05 1.43-1.536.543-2.952.36-4.254.145-1.306-.247-2.527-.646-3.704-1.117-2.348-.949-4.538-2.131-6.662-3.402-4.213-2.593-8.16-5.539-11.859-8.762M647 186.852c1.393 2.116 3.125 3.946 4.966 5.625 1.85 1.673 3.82 3.202 5.89 4.569 2.06 1.372 4.2 2.628 6.426 3.635 2.214 1.008 4.527 1.862 6.79 2.121 1.119.124 2.223.049 3.04-.309.416-.17.733-.413.992-.717l.183-.238c.065-.08.124-.235.185-.348l.371-.736c.938-2.124 1.69-4.56 2.45-6.962 1.533-4.817 3.186-9.655 5.03-14.417 3.83-9.465 8.474-18.658 14.36-26.997 5.821-8.37 12.649-16.005 20.317-22.578-6.714 7.562-12.864 15.524-18.188 24.01-.696 1.038-1.278 2.152-1.922 3.223l-1.92 3.224c-1.159 2.218-2.4 4.39-3.49 6.642-2.241 4.471-4.29 9.038-6.117 13.704-1.868 4.653-3.5 9.393-5.139 14.187-.843 2.393-1.642 4.794-2.82 7.261l-.517.939c-.097.158-.153.305-.283.474l-.406.5c-.577.636-1.318 1.139-2.082 1.4-1.536.555-3.024.494-4.38.288-2.71-.474-5.132-1.502-7.403-2.737-2.274-1.235-4.4-2.682-6.415-4.259-1.992-1.605-3.89-3.325-5.59-5.234-1.702-1.897-3.234-3.978-4.328-6.27M708 201.422c6.616 5.513 13.993 10.017 21.86 13.318 3.915 1.689 7.95 3.082 12.05 4.192 4.096 1.118 8.267 1.95 12.462 2.427 4.185.426 8.44.577 12.48-.058 1.992-.314 3.992-.905 5.36-1.89l.449-.382c.1-.113.175-.214.228-.303.082-.174.094-.293.047-.56-.097-.535-.63-1.35-1.247-2.069-1.285-1.467-2.893-2.862-4.51-4.226l-4.974-4.086c-3.338-2.746-6.666-5.594-9.7-8.816-3-3.235-5.765-6.875-7.486-11.167-.85-2.14-1.41-4.439-1.524-6.783-.068-1.17-.021-2.349.132-3.508.153-1.149.401-2.184.603-3.279.373-2.183 1.007-4.257 1.512-6.384.572-2.098 1.202-4.174 1.807-6.259l1.99-6.183 2.138-6.121c5.834-16.269 12.591-32.15 19.859-47.785-3.013 8.08-6.096 16.121-8.969 24.24-2.936 8.093-5.788 16.214-8.464 24.378-2.594 8.173-5.26 16.39-6.817 24.701-.169 1.027-.4 2.097-.53 3.084-.124.976-.158 1.96-.093 2.94.107 1.963.587 3.904 1.337 5.76 1.513 3.725 4.049 7.07 6.9 10.114 2.852 3.065 6.06 5.852 9.348 8.588l4.975 4.138c1.654 1.422 3.325 2.847 4.842 4.654.728.936 1.53 1.917 1.866 3.513.16.787.05 1.802-.4 2.573-.22.379-.477.7-.75.976l-.787.657c-2.181 1.482-4.475 1.987-6.704 2.33-4.482.636-8.897.329-13.234-.246-17.278-2.569-33.672-10.465-46.056-22.478M843.472 88.5c1.707 3.183 2.448 6.868 2.518 10.512.093 3.663-.5 7.319-1.455 10.857-1.988 7.077-5.625 13.637-10.235 19.38-2.33 2.858-4.908 5.513-7.681 7.953-2.787 2.425-5.796 4.59-8.942 6.527-6.312 3.848-13.263 6.625-20.434 8.263l.82-.784c-.593 1.806-1.033 3.667-1.15 5.557-.114 1.885.064 3.79.622 5.597.569 1.797 1.55 3.493 2.966 4.8 1.413 1.299 3.283 2.179 5.305 2.318-2.015.143-4.124-.472-5.802-1.72-1.707-1.22-2.973-2.996-3.788-4.919-.826-1.931-1.192-4.034-1.215-6.12-.017-2.09.272-4.173.822-6.176.105-.38.399-.66.754-.765l.067-.02c6.84-2.016 13.368-4.935 19.325-8.713 2.986-1.877 5.814-3.992 8.462-6.304 2.664-2.29 5.148-4.791 7.394-7.486 2.26-2.682 4.327-5.531 6.09-8.558 1.78-3.016 3.323-6.18 4.466-9.491 1.191-3.293 1.973-6.732 2.273-10.232.253-3.491.02-7.077-1.182-10.476M854 142.5c-.905 3.923-1.9 7.82-3.087 11.685-1.222 3.851-2.637 7.664-4.377 11.349-1.703 3.702-3.778 7.248-6.141 10.611-2.39 3.345-5.163 6.438-8.252 9.195-3.122 2.715-6.582 5.063-10.286 6.908-3.72 1.808-7.638 3.194-11.656 4.032-8.036 1.757-16.312 1.484-24.201.024 8.033.096 16.032-.384 23.59-2.521 7.534-2.106 14.585-5.738 20.385-10.917 5.872-5.103 10.493-11.568 14.28-18.49 1.881-3.477 3.591-7.071 5.15-10.747 1.59-3.665 3-7.428 4.595-11.129M239.938 275.54c-.225 2.412-.401 4.828-.44 7.244-.018 2.405.013 4.846.579 7.142.297 1.124.752 2.252 1.573 2.947.806.715 1.954.803 3.05.555 2.225-.53 4.253-1.902 6.2-3.273 2.043-1.43 4.236-2.538 6.441-3.6 2.205-1.066 4.462-1.992 6.723-2.907 4.534-1.797 9.144-3.365 13.773-4.86 9.265-2.973 18.632-5.584 28.039-8.026 9.405-2.446 18.86-4.69 28.337-6.826 18.96-4.26 38.054-7.882 57.188-11.234 19.14-3.329 38.341-6.299 57.59-8.941 38.515-5.115 77.214-8.89 116.018-10.996 38.8-1.863 77.746-2.258 116.484.828l-.057.001c2.033-.148 4.055-.491 5.974-1.152 1.887-.694 3.713-1.73 4.928-3.345 1.232-1.59 1.682-3.738 1.211-5.723-.453-1.981-1.71-3.792-3.473-4.874 1.799 1.022 3.142 2.805 3.676 4.824.555 2.019.171 4.292-1.075 6.019-1.224 1.755-3.117 2.896-5.058 3.66-1.97.735-4.043 1.139-6.12 1.342l-.044.002-.012-.001c-38.75-2.033-77.584-1.285-116.278 1.159-38.709 2.311-77.314 6.28-115.737 11.501-38.44 5.099-76.722 11.481-114.65 19.512-9.484 1.998-18.945 4.105-28.355 6.412-9.41 2.302-18.78 4.774-28.036 7.602-4.627 1.413-9.222 2.929-13.743 4.615-2.256.853-4.51 1.72-6.697 2.716-2.184.988-4.362 2.03-6.326 3.341-2.048 1.32-4.18 2.685-6.732 3.195-.636.11-1.31.15-1.982.019-.67-.127-1.325-.444-1.82-.911-1.01-.946-1.421-2.22-1.695-3.42-.496-2.443-.437-4.898-.28-7.32.169-2.424.474-4.83.826-7.227M981 47.5c-7.126 14.442-14.735 28.634-22.367 42.795l-11.453 21.237c-3.822 7.073-7.655 14.14-11.406 21.247-3.802 7.08-7.535 14.193-11.184 21.344-3.683 7.134-7.21 14.34-10.533 21.62-1.625 3.648-3.198 7.328-4.49 11.068l-.877 2.816-.328 1.412-.166.707-.079.691c-.044.48-.121.878-.145 1.43-.046.528-.038 1.05-.128 1.58-.096.528-.13 1.055-.297 1.581l-.217.786c-.09.26-.21.514-.315.769-.451 1.002-1.11 1.99-2.06 2.66-.927.685-2.032 1.058-3.11 1.194-2.183.246-4.252-.263-6.191-.911-3.883-1.353-7.393-3.455-10.654-5.825 1.717 1.06 3.501 2.005 5.322 2.852 1.817.853 3.679 1.61 5.593 2.14 1.9.517 3.9.846 5.738.514 1.844-.315 3.295-1.511 3.865-3.245.34-.83.475-1.77.57-2.703.062-.465.03-.953.05-1.426 0-.455.058-1.054.087-1.575l.06-.809.142-.768.288-1.54.782-2.98c1.16-3.92 2.67-7.68 4.185-11.431 6.238-14.924 13.653-29.247 21.168-43.492 7.607-14.2 15.46-28.258 23.533-42.186 4.021-6.973 8.114-13.904 12.215-20.83L981 47.5zM897.384 217.5c2.346 4.035 3.514 8.788 3.607 13.574.066 2.404-.239 4.831-.859 7.219-.66 2.37-1.725 4.701-3.328 6.707-1.623 1.983-3.788 3.56-6.17 4.444-2.388.872-4.897 1.183-7.307 1.01-2.416-.13-4.755-.64-6.973-1.4-2.226-.742-4.34-1.732-6.354-2.879 2.276.46 4.487 1.02 6.729 1.298 2.22.37 4.45.494 6.61.4 2.156-.135 4.267-.477 6.132-1.335 1.871-.823 3.502-2.057 4.79-3.634 1.323-1.555 2.234-3.487 2.902-5.514.699-2.03 1.045-4.202 1.275-6.403.37-4.423.015-8.965-1.054-13.487M817 283.5c0-11.24-7.76-19-19-19 11.24 0 19-7.76 19-19 0 11.24 7.76 19 19 19-11.24 0-19 7.76-19 19" transform="translate(0 .5)"/>
        <path fill="#FFF" d="M825 243.5c0-8.874-6.128-15-15-15 8.872 0 15-6.126 15-15 0 8.874 6.126 15 15 15-8.874 0-15 6.126-15 15M585 278.5c0-8.874-6.128-15-15-15 8.872 0 15-6.126 15-15 0 8.874 6.126 15 15 15-8.874 0-15 6.126-15 15" transform="translate(0 .5)"/>
        <path fill="#C9961A" d="M784 257.5c0-5.916-4.084-10-10-10 5.916 0 10-4.084 10-10 0 5.916 4.085 10 10 10-5.915 0-10 4.084-10 10M937 20.5c0-5.916-4.085-10-10-10 5.915 0 10-4.084 10-10 0 5.916 4.085 10 10 10-5.915 0-10 4.084-10 10" transform="translate(0 .5)"/>
        <path fill="#FFF" d="M953 154.5c0-5.916-4.085-10-10-10 5.915 0 10-4.084 10-10 0 5.916 4.085 10 10 10-5.915 0-10 4.084-10 10M531 272.5c0-5.916-4.085-10-10-10 5.915 0 10-4.084 10-10 0 5.916 4.085 10 10 10-5.915 0-10 4.084-10 10M212 310.5c0-5.916-4.084-10-10-10 5.916 0 10-4.084 10-10 0 5.916 4.085 10 10 10-5.915 0-10 4.084-10 10M523 91.5c0-5.916-4.085-10-10-10 5.915 0 10-4.084 10-10 0 5.916 4.085 10 10 10-5.915 0-10 4.084-10 10M485 271.5c0-5.916-4.085-10-10-10 5.915 0 10-4.084 10-10 0 5.916 4.085 10 10 10-5.915 0-10 4.084-10 10M756 36.5c0-5.916-4.085-10-10-10 5.915 0 10-4.084 10-10 0 5.916 4.085 10 10 10-5.915 0-10 4.084-10 10M508 58.5c0-5.916-4.085-10-10-10 5.915 0 10-4.084 10-10 0 5.916 4.085 10 10 10-5.915 0-10 4.084-10 10" transform="translate(0 .5)"/>
        <path fill="#C9961A" d="M340 85.5c0-11.24-7.76-19-19-19 11.24 0 19-7.761 19-19 0 11.239 7.76 19 19 19-11.24 0-19 7.76-19 19M184 114.5c0-8.282-5.718-14-14-14 8.282 0 14-5.718 14-14 0 8.282 5.718 14 14 14-8.282 0-14 5.718-14 14" transform="translate(0 .5)"/>
        <path fill="#FFF" d="M751 260c-12.126 0-20.5 8.372-20.5 20.5 0-12.128-8.372-20.5-20.5-20.5 12.128 0 20.5-8.374 20.5-20.5 0 12.126 8.374 20.5 20.5 20.5" transform="translate(0 .5)"/>
        <path fill="#C9961A" d="M904 78c-9.169 0-15.5 6.33-15.5 15.5 0-9.17-6.331-15.5-15.5-15.5 9.169 0 15.5-6.33 15.5-15.5 0 9.17 6.331 15.5 15.5 15.5M940 250c-9.169 0-15.5 6.33-15.5 15.5 0-9.17-6.331-15.5-15.5-15.5 9.169 0 15.5-6.33 15.5-15.5 0 9.17 6.331 15.5 15.5 15.5M956 195c-9.169 0-15.5 6.33-15.5 15.5 0-9.17-6.331-15.5-15.5-15.5 9.169 0 15.5-6.33 15.5-15.5 0 9.17 6.331 15.5 15.5 15.5" transform="translate(0 .5)"/>
        <path fill="#FFF" d="M51 114c-9.169 0-15.5 6.33-15.5 15.5 0-9.17-6.331-15.5-15.5-15.5 9.169 0 15.5-6.331 15.5-15.5 0 9.169 6.331 15.5 15.5 15.5M792 60c-9.169 0-15.5 6.33-15.5 15.5 0-9.17-6.331-15.5-15.5-15.5 9.169 0 15.5-6.33 15.5-15.5 0 9.17 6.331 15.5 15.5 15.5M871 55c-9.169 0-15.5 6.33-15.5 15.5 0-9.17-6.331-15.5-15.5-15.5 9.169 0 15.5-6.33 15.5-15.5 0 9.17 6.331 15.5 15.5 15.5M920 34c-9.169 0-15.5 6.33-15.5 15.5 0-9.17-6.331-15.5-15.5-15.5 9.169 0 15.5-6.33 15.5-15.5 0 9.17 6.331 15.5 15.5 15.5" transform="translate(0 .5)"/>
        <path fill="#C9961A" d="M489 61c-9.169 0-15.5 6.33-15.5 15.5 0-9.17-6.331-15.5-15.5-15.5 9.169 0 15.5-6.33 15.5-15.5 0 9.17 6.331 15.5 15.5 15.5M164 299c-9.169 0-15.5 6.33-15.5 15.5 0-9.17-6.331-15.5-15.5-15.5 9.169 0 15.5-6.33 15.5-15.5 0 9.17 6.331 15.5 15.5 15.5M162 75.5c0-4.141-2.859-7-7-7 4.141 0 7-2.859 7-7 0 4.141 2.859 7 7 7-4.141 0-7 2.859-7 7M374 52.5c0-4.141-2.859-7-7-7 4.141 0 7-2.859 7-7 0 4.141 2.859 7 7 7-4.141 0-7 2.859-7 7M222 260.5c0-4.141-2.859-7-7-7 4.141 0 7-2.859 7-7 0 4.141 2.859 7 7 7-4.141 0-7 2.859-7 7" transform="translate(0 .5)"/>
        <path fill="#FFF" d="M350 103.5c0-4.141-2.859-7-7-7 4.141 0 7-2.859 7-7 0 4.141 2.859 7 7 7-4.141 0-7 2.859-7 7M182 294.5c0-4.141-2.859-7-7-7 4.141 0 7-2.859 7-7 0 4.141 2.859 7 7 7-4.141 0-7 2.859-7 7" transform="translate(0 .5)"/>
        <path fill="#C9961A" d="M443 88.5c0-4.141-2.86-7-7-7 4.14 0 7-2.859 7-7 0 4.141 2.859 7 7 7-4.141 0-7 2.859-7 7M119 291.5c0-4.141-2.86-7-7-7 4.14 0 7-2.859 7-7 0 4.141 2.859 7 7 7-4.141 0-7 2.859-7 7M554 258.5c0-4.141-2.86-7-7-7 4.14 0 7-2.859 7-7 0 4.141 2.86 7 7 7-4.14 0-7 2.859-7 7M472 35.5c0-4.141-2.86-7-7-7 4.14 0 7-2.859 7-7 0 4.141 2.859 7 7 7-4.141 0-7 2.859-7 7" transform="translate(0 .5)"/>
        <g transform="translate(0 .5) translate(173 308.5)">
            <mask id="prefix__b" fill="#fff">
                <use xlink:href="#prefix__a"/>
            </mask>
            <path fill="#C9961A" d="M7.61 14c0-4.103-2.82-6.935-6.9-6.935 4.08 0 6.9-2.834 6.9-6.937 0 4.103 2.817 6.937 6.9 6.937-4.083 0-6.9 2.832-6.9 6.935" mask="url(#prefix__b)"/>
        </g>
        <path fill="#C9961A" d="M7 102.5c0-4.141-2.859-7-7-7 4.141 0 7-2.859 7-7 0 4.141 2.859 7 7 7-4.141 0-7 2.859-7 7" transform="translate(0 .5)"/>
        <path fill="#FFF" d="M303 96.5c0-8.282-5.719-14-14-14 8.281 0 14-5.718 14-14 0 8.282 5.719 14 14 14-8.281 0-14 5.718-14 14" transform="translate(0 .5)"/>
        <path fill="#C9961A" d="M189 153.5c0-5.916-4.084-10-10-10 5.916 0 10-4.084 10-10 0 5.916 4.085 10 10 10-5.915 0-10 4.084-10 10M624 262.5c0-5.916-4.085-10-10-10 5.915 0 10-4.084 10-10 0 5.916 4.085 10 10 10-5.915 0-10 4.084-10 10M729 81.5c0-5.916-4.085-10-10-10 5.915 0 10-4.084 10-10 0 5.916 4.085 10 10 10-5.915 0-10 4.084-10 10M21 152.5c0-5.916-4.084-10-10-10 5.916 0 10-4.084 10-10 0 5.916 4.085 10 10 10-5.915 0-10 4.084-10 10M884 117c0 3.037-2.462 5.5-5.5 5.5s-5.5-2.463-5.5-5.5c0-3.038 2.462-5.5 5.5-5.5s5.5 2.462 5.5 5.5M214 273c0 3.037-2.462 5.5-5.5 5.5-3.037 0-5.5-2.463-5.5-5.5 0-3.038 2.463-5.5 5.5-5.5 3.038 0 5.5 2.462 5.5 5.5" transform="translate(0 .5)"/>
        <path fill="#FFF" d="M981 184c0 4.142-3.358 7.5-7.5 7.5-4.142 0-7.5-3.358-7.5-7.5 0-4.142 3.358-7.5 7.5-7.5 4.142 0 7.5 3.358 7.5 7.5M779 281c0 3.037-2.462 5.5-5.5 5.5s-5.5-2.463-5.5-5.5c0-3.038 2.462-5.5 5.5-5.5s5.5 2.462 5.5 5.5M723 43c0 3.037-2.462 5.5-5.5 5.5S712 46.037 712 43c0-3.038 2.462-5.5 5.5-5.5s5.5 2.462 5.5 5.5M958 246.5c0-8.874-6.128-15-15-15 8.872 0 15-6.126 15-15 0 8.874 6.126 15 15 15-8.874 0-15 6.126-15 15M196 61c0 3.037-2.462 5.5-5.5 5.5-3.037 0-5.5-2.463-5.5-5.5 0-3.038 2.463-5.5 5.5-5.5 3.038 0 5.5 2.462 5.5 5.5" transform="translate(0 .5)"/>
        <path fill="#C9961A" d="M695 58c0 4.142-3.358 7.5-7.5 7.5-4.142 0-7.5-3.358-7.5-7.5 0-4.142 3.358-7.5 7.5-7.5 4.142 0 7.5 3.358 7.5 7.5M51 79c0 4.142-3.358 7.5-7.5 7.5-4.142 0-7.5-3.358-7.5-7.5 0-4.142 3.358-7.5 7.5-7.5 4.142 0 7.5 3.358 7.5 7.5M155 98c0 4.142-3.358 7.5-7.5 7.5-4.142 0-7.5-3.358-7.5-7.5 0-4.142 3.358-7.5 7.5-7.5 4.142 0 7.5 3.358 7.5 7.5" transform="translate(0 .5)"/>
        <path fill="#FFF" d="M576 127.5L577.905 124.579 588.244 122.517 587.944 127.5 586.056 131.996 579.731 134.297 574.689 134.008zM276 178.982L274.366 177.011 270 180.433 268.742 183.828 275.397 183.292zM544.717 96.415L547.355 96.173 550.121 108.3 545.716 115.129 542.53 113.763 542.3 98.727z" transform="translate(0 .5)"/>
    </g>
</svg>
