<svg xmlns="http://www.w3.org/2000/svg" width="239" height="71" viewBox="0 0 239 71">
    <g fill="#FFF" fill-rule="evenodd">
        <path fill-rule="nonzero" d="M99.94 62V20h-7.02v42h7.02zm29.22.6c5.82 0 11.04-2.34 14.82-6.12l-4.92-4.98c-2.52 2.52-6.06 4.08-9.9 4.08-7.74 0-13.92-5.58-13.92-14.58 0-8.46 5.28-14.58 13.92-14.58 3.84 0 7.38 1.56 9.9 4.08l4.92-4.92c-3.78-3.84-9-6.18-14.82-6.18-12.3 0-21.06 8.94-21.06 21.6 0 13.2 9.48 21.6 21.06 21.6zm41.1-.06c27.6 0 27.54-43.08 0-43.08-27.66 0-27.72 43.08 0 43.08zm0-6.78c-18.18 0-18.12-29.46 0-29.46 18.18 0 18.18 29.46 0 29.46zM206.02 62V32.12L226.9 62h7.08V20h-6.96v29.88L206.08 20H199v42h7.02z"/>
        <path d="M0 26.99L73.102 26.99 14.03 70.099 22.739 43.427zM29.512 22.723L36.74 0 43.968 22.723 39.84 22.723 36.74 14.332 33.499 22.723zM52.46 47.334L59.356 70.099 40.268 56.026 43.968 53.341 51.623 59.445 48.666 49.932z"/>
    </g>
</svg>
