<svg xmlns="http://www.w3.org/2000/svg" width="78" height="78" viewBox="0 0 78 78">
    <g fill="none" fill-rule="evenodd">
        <g>
            <g>
                <g fill="#FFF" fill-rule="nonzero">
                    <path d="M49.694 8.624C44.022 2.926 36.232-.194 28.168.009 12.108.484-.465 13.711.013 29.65c.069 3.324.752 6.58 1.982 9.632 1.025 2.577 2.392 4.951 4.1 7.122l-2.392 5.63c-.956 2.17.069 4.68 2.256 5.63.751.338 1.64.406 2.46.27l11.07-1.899c3.964 1.357 8.132 1.832 12.3 1.425 14.283-1.425 25.422-13.023 26.174-27.267.41-8.072-2.597-15.872-8.269-21.57zM26.87 40.299h-7.586c-1.162 0-2.187-.95-2.187-2.17 0-1.153.957-2.17 2.187-2.17h7.586c1.161 0 2.186.949 2.186 2.17 0 1.22-.956 2.17-2.186 2.17zm11.822-8.817H19.284c-1.162 0-2.187-.95-2.187-2.17 0-1.222.957-2.171 2.187-2.171h19.408c1.162 0 2.187.95 2.187 2.17 0 1.221-1.025 2.17-2.187 2.17zm0-8.886H19.284c-1.162 0-2.187-.95-2.187-2.17 0-1.153.957-2.17 2.187-2.17h19.408c1.162 0 2.187.949 2.187 2.17 0 1.153-1.025 2.17-2.187 2.17z" transform="translate(-277 -71) translate(277 71) translate(10 10)"/>
                </g>
            </g>
        </g>
    </g>
</svg>
