<?xml version="1.0" encoding="UTF-8"?>
<svg width="112px" height="112px" viewBox="0 0 112 112" version="1.1" xmlns="http://www.w3.org/2000/svg" xmlns:xlink="http://www.w3.org/1999/xlink">
    <title>Wow</title>
    <defs>
        <path d="M38.3343299,0.613409998 C31.5488699,0.613409998 25.1753399,2.37773999 19.6470599,5.47031998 L19.6470599,5.47031998 C16.5475799,7.20290998 13.71237,9.35570997 11.22078,11.85006 L11.22078,11.85006 C10.1154,12.95475 9.07625997,14.12844 8.11301997,15.3635399 L8.11301997,15.3635399 C6.86204998,16.9615799 5.73665998,18.6638099 4.74926998,20.4522899 L4.74926998,20.4522899 C3.40307999,22.8914399 2.31494999,25.4920499 1.52144999,28.2196199 L1.52144999,28.2196199 C0.531299998,31.6240799 0,35.2231199 0,38.9477399 L0,38.9477399 C0,42.2880299 0.428489999,45.5296498 1.23027,48.6173998 L1.23027,48.6173998 C2.56058999,53.7351298 4.92176998,58.4367898 8.07782997,62.4884698 L8.07782997,62.4884698 C8.72849997,63.3226798 9.41159997,64.1285998 10.12782,64.9048498 L10.12782,64.9048498 C10.48386,65.2926298 10.84887,65.6728198 11.22078,66.0447298 L11.22078,66.0447298 C13.71237,68.5390798 16.5475799,70.6911898 19.6470599,72.4244697 L19.6470599,72.4244697 C25.1753399,75.5170497 31.5488699,77.2799997 38.3343299,77.2799997 L38.3343299,77.2799997 C40.9390799,77.2799997 43.4824198,77.0198697 45.9415798,76.5251397 L45.9415798,76.5251397 C48.8554498,75.9393297 51.6471898,75.0230097 54.2809198,73.8168897 L54.2809198,73.8168897 C58.4616298,71.9014498 62.2393798,69.2559898 65.4478798,66.0447298 L65.4478798,66.0447298 C65.8197898,65.6728198 66.1847998,65.2926298 66.5408398,64.9048498 L66.5408398,64.9048498 C67.2563698,64.1285998 67.9394698,63.3226798 68.5887598,62.4884698 L68.5887598,62.4884698 C71.7468898,58.4367898 74.1073797,53.7351298 75.4376997,48.6173998 L75.4376997,48.6173998 C76.2408597,45.5296498 76.6665897,42.2880299 76.6665897,38.9477399 L76.6665897,38.9477399 C76.6665897,35.2231199 76.1359797,31.6240799 75.1465197,28.2196199 L75.1465197,28.2196199 C74.3530197,25.4920499 73.2635097,22.8914399 71.9173198,20.4522899 L71.9173198,20.4522899 C70.9313098,18.6638099 69.8059198,16.9615799 68.5549498,15.3635399 L68.5549498,15.3635399 C67.5917098,14.12844 66.5525698,12.95475 65.4478798,11.85006 L65.4478798,11.85006 C62.2393798,8.63741997 58.4616298,5.99264998 54.2809198,4.07789999 L54.2809198,4.07789999 C51.6471898,2.87177999 48.8554498,1.95545999 45.9415798,1.36896 L45.9415798,1.36896 C43.4824198,0.873539997 40.9390799,0.613409998 38.3343299,0.613409998 Z" id="path-1"></path>
        <radialGradient cx="50%" cy="46.7907852%" fx="50%" fy="46.7907852%" r="100%" id="radialGradient-3">
            <stop stop-color="#FFFA79" offset="0%"></stop>
            <stop stop-color="#FF9800" offset="80.8986003%"></stop>
            <stop stop-color="#E47700" offset="100%"></stop>
        </radialGradient>
        <radialGradient cx="50%" cy="46.7907852%" fx="50%" fy="46.7907852%" r="50%" id="radialGradient-4">
            <stop stop-color="#FFE570" offset="0%"></stop>
            <stop stop-color="#FFA436" stop-opacity="0.3" offset="100%"></stop>
        </radialGradient>
        <linearGradient x1="50%" y1="104.924129%" x2="50%" y2="0%" id="linearGradient-5">
            <stop stop-color="#FFC549" offset="0%"></stop>
            <stop stop-color="#FFE2A8" offset="100%"></stop>
        </linearGradient>
        <linearGradient x1="50%" y1="0%" x2="50%" y2="100%" id="linearGradient-6">
            <stop stop-color="#2E1600" offset="0%"></stop>
            <stop stop-color="#703901" offset="100%"></stop>
        </linearGradient>
        <path d="M0.11868,10.09125 C0.11868,15.3028199 3.94610999,19.5290699 8.66432997,19.5290699 L8.66432997,19.5290699 C13.38324,19.5290699 17.2092899,15.3028199 17.2092899,10.09125 L17.2092899,10.09125 C17.2092899,4.87898998 13.38324,0.653429998 8.66432997,0.653429998 L8.66432997,0.653429998 C3.94610999,0.653429998 0.11868,4.87898998 0.11868,10.09125" id="path-7"></path>
        <linearGradient x1="50.0003985%" y1="0.000734025442%" x2="50.0003985%" y2="99.9989037%" id="linearGradient-9">
            <stop stop-color="#241100" offset="0%"></stop>
            <stop stop-color="#753B01" offset="100%"></stop>
        </linearGradient>
    </defs>
    <g id="Icon-App" stroke="none" stroke-width="1" fill="none" fill-rule="evenodd">
        <g id="Wow">
            <g id="Group-24" transform="translate(18.000000, 17.000000)">
                <g id="Group-3">
                    <mask id="mask-2" fill="white">
                        <use xlink:href="#path-1"></use>
                    </mask>
                    <g id="Clip-2"></g>
                    <path d="M38.3343299,0.613409998 C31.5488699,0.613409998 25.1753399,2.37773999 19.6470599,5.47031998 C16.5475799,7.20290998 13.71237,9.35570997 11.22078,11.85006 C10.1154,12.95475 9.07625997,14.12844 8.11301997,15.3635399 C6.86204998,16.9615799 5.73665998,18.6638099 4.74926998,20.4522899 C3.40307999,22.8914399 2.31494999,25.4920499 1.52144999,28.2196199 C0.531299998,31.6240799 0,35.2231199 0,38.9477399 C0,42.2880299 0.428489999,45.5296498 1.23027,48.6173998 C2.56058999,53.7351298 4.92176998,58.4367898 8.07782997,62.4884698 C8.72849997,63.3226798 9.41159997,64.1285998 10.12782,64.9048498 C10.48386,65.2926298 10.84887,65.6728198 11.22078,66.0447298 C13.71237,68.5390798 16.5475799,70.6911898 19.6470599,72.4244697 C25.1753399,75.5170497 31.5488699,77.2799997 38.3343299,77.2799997 C40.9390799,77.2799997 43.4824198,77.0198697 45.9415798,76.5251397 C48.8554498,75.9393297 51.6471898,75.0230097 54.2809198,73.8168897 C58.4616298,71.9014498 62.2393798,69.2559898 65.4478798,66.0447298 C65.8197898,65.6728198 66.1847998,65.2926298 66.5408398,64.9048498 C67.2563698,64.1285998 67.9394698,63.3226798 68.5887598,62.4884698 C71.7468898,58.4367898 74.1073797,53.7351298 75.4376997,48.6173998 C76.2408597,45.5296498 76.6665897,42.2880299 76.6665897,38.9477399 C76.6665897,35.2231199 76.1359797,31.6240799 75.1465197,28.2196199 C74.3530197,25.4920499 73.2635097,22.8914399 71.9173198,20.4522899 C70.9313098,18.6638099 69.8059198,16.9615799 68.5549498,15.3635399 C67.5917098,14.12844 66.5525698,12.95475 65.4478798,11.85006 C62.2393798,8.63741997 58.4616298,5.99264998 54.2809198,4.07789999 C51.6471898,2.87177999 48.8554498,1.95545999 45.9415798,1.36896 C43.4824198,0.873539997 40.9390799,0.613409998 38.3343299,0.613409998 Z" id="Fill-1" fill="url(#radialGradient-3)" mask="url(#mask-2)"></path>
                    <path d="M38.3343299,0.689999998 C31.5488699,0.689999998 25.1753399,2.45432999 19.6470599,5.54690998 C16.5475799,7.27949997 13.71237,9.43229997 11.22078,11.92665 C10.1154,13.03134 9.07625997,14.20503 8.11301997,15.4401299 C6.86204998,17.0381699 5.73665998,18.7403999 4.74926998,20.5288799 C3.40307999,22.9680299 2.31494999,25.5686399 1.52144999,28.2962099 C0.531299998,31.7006699 0,35.2997099 0,39.0243299 C0,42.3646199 0.428489999,45.6062398 1.23027,48.6939898 C2.56058999,53.8117198 4.92176998,58.5133798 8.07782997,62.5650598 C8.72849997,63.3992698 9.41159997,64.2051898 10.12782,64.9814398 C10.48386,65.3692198 10.84887,65.7494098 11.22078,66.1213198 C13.71237,68.6156698 16.5475799,70.7677798 19.6470599,72.5010597 C25.1753399,75.5936397 31.5488699,77.3565897 38.3343299,77.3565897 C40.9390799,77.3565897 43.4824198,77.0964597 45.9415798,76.6017297 C48.8554498,76.0159197 51.6471898,75.0995997 54.2809198,73.8934797 C58.4616298,71.9780398 62.2393798,69.3325798 65.4478798,66.1213198 C65.8197898,65.7494098 66.1847998,65.3692198 66.5408398,64.9814398 C67.2563698,64.2051898 67.9394698,63.3992698 68.5887598,62.5650598 C71.7468898,58.5133798 74.1073797,53.8117198 75.4376997,48.6939898 C76.2408597,45.6062398 76.6665897,42.3646199 76.6665897,39.0243299 C76.6665897,35.2997099 76.1359797,31.7006699 75.1465197,28.2962099 C74.3530197,25.5686399 73.2635097,22.9680299 71.9173198,20.5288799 C70.9313098,18.7403999 69.8059198,17.0381699 68.5549498,15.4401299 C67.5917098,14.20503 66.5525698,13.03134 65.4478798,11.92665 C62.2393798,8.71400997 58.4616298,6.06923998 54.2809198,4.15448999 C51.6471898,2.94836999 48.8554498,2.03204999 45.9415798,1.44555 C43.4824198,0.950129997 40.9390799,0.689999998 38.3343299,0.689999998 Z" id="Fill-1" fill="url(#radialGradient-4)" mask="url(#mask-2)"></path>
                    <path d="M38.6654774,21.3899999 C50.0977717,21.3899999 60.7454774,17.2195324 60.7454774,12.075 C60.7454774,6.93046753 50.0977717,2.75999999 38.6654774,2.75999999 C27.2331832,2.75999999 16.5854775,6.93046753 16.5854775,12.075 C16.5854775,17.2195324 27.2331832,21.3899999 38.6654774,21.3899999 Z" id="Oval-Copy-9" fill-opacity="0.49" fill="url(#linearGradient-5)" mask="url(#mask-2)"></path>
                </g>
                <path d="M51.9885328,34.7183159 C48.8131528,34.7183159 46.2380728,32.1432359 46.2380728,28.9678559 C46.2380728,25.7924759 48.8131528,23.2187759 51.9885328,23.2187759 C55.1652928,23.2187759 57.7389928,25.7924759 57.7389928,28.9678559 C57.7389928,32.1432359 55.1652928,34.7183159 51.9885328,34.7183159 Z" id="Fill-8" fill="url(#linearGradient-6)"></path>
                <path d="M24.3804599,34.7183159 C21.2050799,34.7183159 18.6299999,32.1432359 18.6299999,28.9678559 C18.6299999,25.7924759 21.2050799,23.2187759 24.3804599,23.2187759 C27.5572199,23.2187759 30.1309199,25.7924759 30.1309199,28.9678559 C30.1309199,32.1432359 27.5572199,34.7183159 24.3804599,34.7183159 Z" id="Fill-8-Copy" fill="url(#linearGradient-6)"></path>
                <path d="M53.4035848,24.9895919 C53.4035848,25.7699819 52.7701648,26.4047819 51.9883948,26.4047819 C51.2066248,26.4047819 50.5718248,25.7699819 50.5718248,24.9895919 C50.5718248,24.2064419 51.2066248,23.5716419 51.9883948,23.5716419 C52.7701648,23.5716419 53.4035848,24.2064419 53.4035848,24.9895919" id="Fill-10" fill="#FFFFFF"></path>
                <g id="Group-15" transform="translate(29.670000, 44.850000)">
                    <mask id="mask-8" fill="white">
                        <use xlink:href="#path-7"></use>
                    </mask>
                    <g id="Clip-14"></g>
                    <path d="M0.11868,10.09125 C0.11868,15.3028199 3.94610999,19.5290699 8.66432997,19.5290699 L8.66432997,19.5290699 C13.38324,19.5290699 17.2092899,15.3028199 17.2092899,10.09125 L17.2092899,10.09125 C17.2092899,4.87898998 13.38324,0.653429998 8.66432997,0.653429998 L8.66432997,0.653429998 C3.94610999,0.653429998 0.11868,4.87898998 0.11868,10.09125" id="Fill-13" fill="url(#linearGradient-9)" mask="url(#mask-8)"></path>
                </g>
                <path d="M26.0946269,24.9895919 C26.0946269,25.7699819 25.4612069,26.4047819 24.6794369,26.4047819 C23.8976669,26.4047819 23.2642469,25.7699819 23.2642469,24.9895919 C23.2642469,24.2078219 23.8976669,23.5730219 24.6794369,23.5730219 C25.4612069,23.5730219 26.0946269,24.2078219 26.0946269,24.9895919" id="Fill-6" fill="#FFFFFF"></path>
            </g>
            <rect id="Rectangle-Copy-10" stroke="#979797" opacity="0" x="0" y="0" width="112" height="112"></rect>
        </g>
    </g>
</svg>